<svg width="241" height="121" viewBox="0 0 241 121" fill="none" xmlns="http://www.w3.org/2000/svg">
<path d="M220.65 31.7122C221.749 31.7122 222.618 31.3478 223.257 30.6192C223.896 29.8778 224.216 28.8487 224.216 27.5321V24.4258C224.216 23.1091 223.896 22.0865 223.257 21.3578C222.618 20.6164 221.749 20.2457 220.65 20.2457C219.55 20.2457 218.681 20.6164 218.042 21.3578C217.403 22.0865 217.083 23.1091 217.083 24.4258V27.5321C217.083 28.8487 217.403 29.8778 218.042 30.6192C218.681 31.3478 219.55 31.7122 220.65 31.7122ZM220.65 32.901C219.755 32.901 218.937 32.7476 218.195 32.4408C217.454 32.1212 216.815 31.6674 216.278 31.0794C215.741 30.4786 215.319 29.75 215.012 28.8935C214.718 28.037 214.571 27.0655 214.571 25.9789C214.571 24.8924 214.718 23.9209 215.012 23.0644C215.319 22.2079 215.741 21.4857 216.278 20.8977C216.815 20.2968 217.454 19.843 218.195 19.5363C218.937 19.2167 219.755 19.0569 220.65 19.0569C221.544 19.0569 222.362 19.2167 223.104 19.5363C223.845 19.843 224.484 20.2968 225.021 20.8977C225.558 21.4857 225.974 22.2079 226.268 23.0644C226.575 23.9209 226.728 24.8924 226.728 25.9789C226.728 27.0655 226.575 28.037 226.268 28.8935C225.974 29.75 225.558 30.4786 225.021 31.0794C224.484 31.6674 223.845 32.1212 223.104 32.4408C222.362 32.7476 221.544 32.901 220.65 32.901ZM228.652 31.6355H230.051V20.3224H228.652V19.287H238.891V22.6617H237.146V20.4183H232.333V25.4612H235.593V24.0998H236.858V27.9539H235.593V26.5925H232.333V31.6355H234.116V32.6709H228.652V31.6355Z" fill="white"/>
<rect x="214.317" y="37.0115" width="24.689" height="1.39093" fill="#5293C2"/>
<path d="M1.01606 62.4575C1.01606 56.0902 5.52058 48.7746 13.0394 48.7746C14.9699 48.7746 16.223 49.2487 17.8826 50.1632C18.4584 50.5018 18.6277 50.5696 18.8648 50.5696C19.5422 50.5696 19.8809 49.9261 20.0502 49.3165C20.1518 48.9439 20.355 48.7746 20.5921 48.7746C20.8292 48.7746 20.9646 48.9439 20.9985 49.3503L21.4727 56.9369C21.5065 57.3433 21.3372 57.5804 21.1001 57.5804C20.8292 57.5804 20.6598 57.411 20.5582 57.0724C19.576 53.6516 17.6455 50.2648 13.1749 50.2648C6.80758 50.2648 4.91094 57.1062 4.91094 61.9494C4.91094 66.8265 6.94306 73.1261 13.5474 73.1261C17.3407 73.1261 19.1019 71.0262 20.9308 68.2829C21.1679 67.978 21.4049 67.8764 21.6759 68.0119C21.9468 68.1474 21.9807 68.4183 21.8114 68.7909C19.9486 72.1777 17.3068 74.9211 12.3282 74.9211C4.36905 74.9211 1.01606 67.8426 1.01606 62.4575ZM28.3059 63.8799C30.1348 70.044 34.0636 74.0405 38.5681 72.6858C43.0726 71.331 44.2242 65.8104 42.3953 59.6464C40.5325 53.4484 36.6376 49.7567 32.1331 51.1115C27.6286 52.4662 26.4432 57.682 28.3059 63.8799ZM23.9369 61.7462C23.9369 54.2274 29.1188 48.7746 35.3845 48.7746C41.6501 48.7746 46.832 54.2274 46.832 61.7462C46.832 69.1634 41.8195 74.9211 35.3845 74.9211C28.9494 74.9211 23.9369 69.1634 23.9369 61.7462ZM69.3658 75.0904C69.1287 75.0904 68.8916 74.955 68.7223 74.7179L54.5991 55.616C54.2604 55.1418 53.8539 55.2773 53.8539 55.8531V69.2989C53.8539 72.0761 53.8539 73.2277 55.9538 73.397C56.4957 73.4309 56.7666 73.668 56.7666 74.0405C56.7666 74.4131 56.4618 74.6501 55.9538 74.6501H50.0607C49.5526 74.6501 49.2478 74.4131 49.2478 74.0405C49.2478 73.668 49.5188 73.4309 50.0607 73.397C52.1605 73.2277 52.1605 72.0761 52.1605 69.2989V52.7372C52.1605 52.4324 52.0928 52.2291 51.8896 51.9921C51.009 51.0099 49.6542 50.468 48.6043 50.2986C48.3334 50.2648 48.1979 50.0277 48.1979 49.6551C48.1979 49.2826 48.3672 49.0455 48.6043 49.0455H53.3798C53.6846 49.0455 53.9217 49.181 54.1249 49.4181L67.2659 66.9958C67.6046 67.47 68.011 67.3007 68.011 66.7249V54.3967C68.011 51.6195 68.011 50.468 65.9112 50.2986C65.3693 50.2648 65.0983 50.0277 65.0983 49.6551C65.0983 49.2826 65.4031 49.0455 65.9112 49.0455H71.8043C72.3123 49.0455 72.6171 49.2826 72.6171 49.6551C72.6171 50.0277 72.3462 50.2648 71.8043 50.2986C69.7044 50.468 69.7044 51.6195 69.7044 54.3967L69.7383 74.4808C69.7383 74.8534 69.6028 75.0904 69.3658 75.0904ZM94.8003 75.0904C94.5632 75.0904 94.3261 74.955 94.1568 74.7179L80.0336 55.616C79.6949 55.1418 79.2885 55.2773 79.2885 55.8531V69.2989C79.2885 72.0761 79.2885 73.2277 81.3883 73.397C81.9302 73.4309 82.2012 73.668 82.2012 74.0405C82.2012 74.4131 81.8963 74.6501 81.3883 74.6501H75.4952C74.9871 74.6501 74.6823 74.4131 74.6823 74.0405C74.6823 73.668 74.9533 73.4309 75.4952 73.397C77.595 73.2277 77.595 72.0761 77.595 69.2989V52.7372C77.595 52.4324 77.5273 52.2291 77.3241 51.9921C76.4435 51.0099 75.0888 50.468 74.0388 50.2986C73.7679 50.2648 73.6324 50.0277 73.6324 49.6551C73.6324 49.2826 73.8017 49.0455 74.0388 49.0455H78.8143C79.1191 49.0455 79.3562 49.181 79.5594 49.4181L92.7004 66.9958C93.0391 67.47 93.4455 67.3007 93.4455 66.7249V54.3967C93.4455 51.6195 93.4455 50.468 91.3457 50.2986C90.8038 50.2648 90.5328 50.0277 90.5328 49.6551C90.5328 49.2826 90.8376 49.0455 91.3457 49.0455H97.2388C97.7468 49.0455 98.0516 49.2826 98.0516 49.6551C98.0516 50.0277 97.7807 50.2648 97.2388 50.2986C95.1389 50.468 95.1389 51.6195 95.1389 54.3967L95.1728 74.4808C95.1728 74.8534 95.0373 75.0904 94.8003 75.0904ZM100.218 74.6501C99.7104 74.6501 99.4056 74.4131 99.4056 74.0405C99.4056 73.668 99.6765 73.4309 100.218 73.397C102.318 73.2277 102.318 72.0761 102.318 69.2989V54.3967C102.318 51.6195 102.318 50.468 100.218 50.2986C99.6765 50.2648 99.4056 50.0277 99.4056 49.6551C99.4056 49.2826 99.7104 49.0455 100.218 49.0455H116.611C116.983 49.0455 117.187 49.2148 117.22 49.6213L117.288 50.5018L117.491 53.6516C117.559 54.3629 117.356 54.837 116.983 54.837C116.611 54.8709 116.34 54.4983 116.272 53.7532C115.866 50.6712 114.714 50.5696 111.937 50.5696H106.45C106.078 50.5696 105.841 50.8067 105.841 51.1792V59.8834C105.841 60.256 106.078 60.4931 106.45 60.4931H109.905C112.682 60.4931 113.834 60.4931 114.003 58.0545C114.037 57.4449 114.274 57.1401 114.646 57.1401C115.019 57.1401 115.256 57.4788 115.256 58.0545V64.4557C115.256 64.9976 115.019 65.3702 114.646 65.3702C114.274 65.3702 114.037 65.0653 114.003 64.4557C113.834 62.0172 112.682 62.0172 109.905 62.0172H106.45C106.078 62.0172 105.841 62.2542 105.841 62.6268V71.7713C105.841 72.6519 106.45 73.1261 107.602 73.1261H111.903C114.68 73.1261 115.832 72.9228 116.577 69.2312C116.78 68.3167 117.085 67.9103 117.458 67.9442C117.796 68.0119 117.966 68.5877 117.83 69.4344L117.254 73.1938L117.017 74.6501H100.218ZM119.556 62.4575C119.556 56.0902 124.061 48.7746 131.579 48.7746C133.51 48.7746 134.763 49.2487 136.423 50.1632C136.998 50.5018 137.168 50.5696 137.405 50.5696C138.082 50.5696 138.421 49.9261 138.59 49.3165C138.692 48.9439 138.895 48.7746 139.132 48.7746C139.369 48.7746 139.505 48.9439 139.539 49.3503L140.013 56.9369C140.047 57.3433 139.877 57.5804 139.64 57.5804C139.369 57.5804 139.2 57.411 139.098 57.0724C138.116 53.6516 136.186 50.2648 131.715 50.2648C125.348 50.2648 123.451 57.1062 123.451 61.9494C123.451 66.8265 125.483 73.1261 132.087 73.1261C135.881 73.1261 137.642 71.0262 139.471 68.2829C139.708 67.978 139.945 67.8764 140.216 68.0119C140.487 68.1474 140.521 68.4183 140.351 68.7909C138.489 72.1777 135.847 74.9211 130.868 74.9211C122.909 74.9211 119.556 67.8426 119.556 62.4575ZM141.935 49.6551C141.935 49.2826 142.206 49.0455 142.579 49.0455H160.664C161.037 49.0455 161.308 49.2826 161.308 49.6551L161.342 50.6712L161.443 54.329C161.477 55.1418 161.274 55.6837 160.901 55.6837C160.529 55.7176 160.258 55.2773 160.19 54.3629C159.919 50.7728 158.768 50.7389 155.99 50.7389H153.992C153.62 50.7389 153.383 50.976 153.383 51.3486V69.2989C153.383 72.0761 153.383 73.2277 155.482 73.397C156.024 73.4309 156.295 73.668 156.295 74.0405C156.295 74.4131 155.99 74.6501 155.482 74.6501H147.76C147.252 74.6501 146.948 74.4131 146.948 74.0405C146.948 73.668 147.219 73.4309 147.76 73.397C149.86 73.2277 149.86 72.0761 149.86 69.2989V51.3486C149.86 50.976 149.623 50.7389 149.251 50.7389H147.252C144.475 50.7389 143.324 50.7728 143.053 54.3629C142.985 55.2773 142.714 55.7176 142.341 55.6837C141.969 55.6837 141.766 55.1418 141.8 54.329L141.901 50.6712L141.935 49.6551ZM163.259 74.6501C162.751 74.6501 162.446 74.4131 162.446 74.0405C162.446 73.668 162.717 73.4309 163.259 73.397C165.359 73.2277 165.359 72.0761 165.359 69.2989V54.3967C165.359 51.6195 165.359 50.468 163.259 50.2986C162.717 50.2648 162.446 50.0277 162.446 49.6551C162.446 49.2826 162.751 49.0455 163.259 49.0455H170.981C171.489 49.0455 171.794 49.2826 171.794 49.6551C171.794 50.0277 171.523 50.2648 170.981 50.2986C168.881 50.468 168.881 51.6195 168.881 54.3967V69.2989C168.881 72.0761 168.881 73.2277 170.981 73.397C171.523 73.4309 171.794 73.668 171.794 74.0405C171.794 74.4131 171.489 74.6501 170.981 74.6501H163.259ZM173.501 62.4575C173.501 56.0902 178.006 48.7746 185.524 48.7746C187.455 48.7746 188.708 49.2487 190.368 50.1632C190.943 50.5018 191.113 50.5696 191.35 50.5696C192.027 50.5696 192.366 49.9261 192.535 49.3165C192.637 48.9439 192.84 48.7746 193.077 48.7746C193.314 48.7746 193.45 48.9439 193.484 49.3503L193.958 56.9369C193.992 57.3433 193.822 57.5804 193.585 57.5804C193.314 57.5804 193.145 57.411 193.043 57.0724C192.061 53.6516 190.131 50.2648 185.66 50.2648C179.293 50.2648 177.396 57.1062 177.396 61.9494C177.396 66.8265 179.428 73.1261 186.032 73.1261C189.826 73.1261 191.587 71.0262 193.416 68.2829C193.653 67.978 193.89 67.8764 194.161 68.0119C194.432 68.1474 194.466 68.4183 194.296 68.7909C192.434 72.1777 189.792 74.9211 184.813 74.9211C176.854 74.9211 173.501 67.8426 173.501 62.4575ZM207.666 74.9888C199.673 74.9888 198.827 69.8408 198.827 63.3042V54.3967C198.827 51.6195 198.827 50.468 196.727 50.2986C196.185 50.2648 195.914 50.0277 195.914 49.6551C195.914 49.2826 196.219 49.0455 196.727 49.0455H204.347C204.855 49.0455 205.16 49.2826 205.16 49.6551C205.16 50.0277 204.889 50.2648 204.347 50.2986C202.247 50.468 202.247 51.6195 202.247 54.3967V64.4557C202.247 68.3167 202.518 73.2277 208.377 73.2277C213.492 73.2277 215.287 69.536 215.287 65.0653V54.3967C215.287 51.6195 215.287 50.468 213.187 50.2986C212.645 50.2648 212.374 50.0277 212.374 49.6551C212.374 49.2826 212.679 49.0455 213.187 49.0455H219.114C219.622 49.0455 219.927 49.2826 219.927 49.6551C219.927 50.0277 219.656 50.2648 219.114 50.2986C217.014 50.468 217.014 51.6195 217.014 54.3967V65.2347C217.014 70.2134 215.524 74.9888 207.666 74.9888ZM220.918 49.6551C220.918 49.2826 221.189 49.0455 221.561 49.0455H239.647C240.019 49.0455 240.29 49.2826 240.29 49.6551L240.324 50.6712L240.426 54.329C240.46 55.1418 240.257 55.6837 239.884 55.6837C239.511 55.7176 239.24 55.2773 239.173 54.3629C238.902 50.7728 237.75 50.7389 234.973 50.7389H232.975C232.602 50.7389 232.365 50.976 232.365 51.3486V69.2989C232.365 72.0761 232.365 73.2277 234.465 73.397C235.007 73.4309 235.278 73.668 235.278 74.0405C235.278 74.4131 234.973 74.6501 234.465 74.6501H226.743C226.235 74.6501 225.93 74.4131 225.93 74.0405C225.93 73.668 226.201 73.4309 226.743 73.397C228.843 73.2277 228.843 72.0761 228.843 69.2989V51.3486C228.843 50.976 228.606 50.7389 228.233 50.7389H226.235C223.458 50.7389 222.306 50.7728 222.035 54.3629C221.968 55.2773 221.697 55.7176 221.324 55.6837C220.951 55.6837 220.748 55.1418 220.782 54.329L220.884 50.6712L220.918 49.6551Z" fill="white"/>
<path d="M12.8078 38.3538C4.45795 38.3538 3.57344 32.976 3.57344 26.1475V16.8424C3.57344 13.9412 3.57344 12.7383 1.37984 12.5614C0.813753 12.526 0.530709 12.2783 0.530709 11.8891C0.530709 11.5 0.849134 11.2523 1.37984 11.2523H9.34047C9.87118 11.2523 10.1896 11.5 10.1896 11.8891C10.1896 12.2783 9.90656 12.526 9.34047 12.5614C7.14687 12.7383 7.14687 13.9412 7.14687 16.8424V27.3504C7.14687 31.3838 7.42992 36.514 13.5508 36.514C18.8932 36.514 20.7684 32.6575 20.7684 27.9873V16.8424C20.7684 13.9412 20.7684 12.7383 18.5748 12.5614C18.0087 12.526 17.7257 12.2783 17.7257 11.8891C17.7257 11.5 18.0441 11.2523 18.5748 11.2523H24.7664C25.2971 11.2523 25.6155 11.5 25.6155 11.8891C25.6155 12.2783 25.3325 12.526 24.7664 12.5614C22.5728 12.7383 22.5728 13.9412 22.5728 16.8424V28.1642C22.5728 33.3651 21.0161 38.3538 12.8078 38.3538ZM48.622 38.4599C48.3744 38.4599 48.1267 38.3184 47.9498 38.0708L33.1961 18.1161C32.8423 17.6208 32.4177 17.7623 32.4177 18.3638V32.4099C32.4177 35.3111 32.4177 36.514 34.6113 36.6909C35.1774 36.7263 35.4604 36.974 35.4604 37.3631C35.4604 37.7523 35.142 38 34.6113 38H28.4551C27.9244 38 27.606 37.7523 27.606 37.3631C27.606 36.974 27.889 36.7263 28.4551 36.6909C30.6487 36.514 30.6487 35.3111 30.6487 32.4099V15.1088C30.6487 14.7903 30.5779 14.5781 30.3656 14.3304C29.4458 13.3044 28.0305 12.7383 26.9337 12.5614C26.6507 12.526 26.5092 12.2783 26.5092 11.8891C26.5092 11.5 26.6861 11.2523 26.9337 11.2523H31.9224C32.2408 11.2523 32.4885 11.3938 32.7008 11.6415L46.4284 30.004C46.7822 30.4993 47.2068 30.3224 47.2068 29.7209V16.8424C47.2068 13.9412 47.2068 12.7383 45.0132 12.5614C44.4471 12.526 44.1641 12.2783 44.1641 11.8891C44.1641 11.5 44.4825 11.2523 45.0132 11.2523H51.1694C51.7001 11.2523 52.0186 11.5 52.0186 11.8891C52.0186 12.2783 51.7355 12.526 51.1694 12.5614C48.9758 12.7383 48.9758 13.9412 48.9758 16.8424L49.0112 37.8231C49.0112 38.2123 48.8697 38.4599 48.622 38.4599ZM54.2821 38C53.7514 38 53.4329 37.7523 53.4329 37.3631C53.4329 36.974 53.716 36.7263 54.2821 36.6909C56.4757 36.514 56.4757 35.3111 56.4757 32.4099V16.8424C56.4757 13.9412 56.4757 12.7383 54.2821 12.5614C53.716 12.526 53.4329 12.2783 53.4329 11.8891C53.4329 11.5 53.7514 11.2523 54.2821 11.2523H62.3488C62.8796 11.2523 63.198 11.5 63.198 11.8891C63.198 12.2783 62.9149 12.526 62.3488 12.5614C60.1553 12.7383 60.1553 13.9412 60.1553 16.8424V32.4099C60.1553 35.3111 60.1553 36.514 62.3488 36.6909C62.9149 36.7263 63.198 36.974 63.198 37.3631C63.198 37.7523 62.8796 38 62.3488 38H54.2821ZM89.2171 11.2523C89.5355 11.2523 89.7124 11.5 89.7124 11.8891C89.7124 12.2783 89.5709 12.526 89.2171 12.5614C87.908 12.7383 86.9527 13.7643 85.9621 16.4886L77.8953 38.1415C77.7892 38.4599 77.5769 38.6369 77.2938 38.6369C77.0108 38.6369 76.7985 38.4599 76.657 38.1415L68.1303 16.4532C67.0688 13.7643 66.0782 12.7383 64.7691 12.5614C64.4153 12.526 64.2738 12.2783 64.2738 11.8891C64.2738 11.5 64.4507 11.2523 64.7691 11.2523H72.6236C73.2251 11.2523 73.6142 11.5 73.6142 11.8891C73.6142 12.2783 73.2958 12.526 72.6236 12.5614C69.97 12.7383 70.9607 13.7643 72.0221 16.4532L77.8245 31.1716C78.0368 31.7376 78.4614 31.7023 78.6737 31.1716L84.1223 16.4886C85.1483 13.7643 86.0682 12.7383 83.4147 12.5614C82.7424 12.526 82.424 12.2783 82.424 11.8891C82.424 11.5 82.8132 11.2523 83.4147 11.2523H89.2171ZM91.6321 38C91.1014 38 90.7829 37.7523 90.7829 37.3631C90.7829 36.974 91.066 36.7263 91.6321 36.6909C93.8257 36.514 93.8257 35.3111 93.8257 32.4099V16.8424C93.8257 13.9412 93.8257 12.7383 91.6321 12.5614C91.066 12.526 90.7829 12.2783 90.7829 11.8891C90.7829 11.5 91.1014 11.2523 91.6321 11.2523H108.756C109.145 11.2523 109.358 11.4292 109.393 11.8538L109.464 12.7737L109.676 16.064C109.747 16.807 109.535 17.3024 109.145 17.3024C108.756 17.3377 108.473 16.9486 108.402 16.1702C107.978 12.9506 106.775 12.8444 103.874 12.8444H98.1421C97.7529 12.8444 97.5052 13.0921 97.5052 13.4813V22.5741C97.5052 22.9633 97.7529 23.2109 98.1421 23.2109H101.751C104.652 23.2109 105.855 23.2109 106.032 20.6635C106.067 20.0267 106.315 19.7082 106.704 19.7082C107.093 19.7082 107.341 20.0621 107.341 20.6635V27.3504C107.341 27.9165 107.093 28.3057 106.704 28.3057C106.315 28.3057 106.067 27.9873 106.032 27.3504C105.855 24.803 104.652 24.803 101.751 24.803H98.1421C97.7529 24.803 97.5052 25.0507 97.5052 25.4399V34.9927C97.5052 35.9125 98.1421 36.4079 99.345 36.4079H103.838C106.74 36.4079 107.943 36.1956 108.721 32.3391C108.933 31.3838 109.252 30.9593 109.641 30.9946C109.995 31.0654 110.171 31.6669 110.03 32.5514L109.428 36.4786L109.181 38H91.6321ZM112.328 38C111.798 38 111.479 37.7523 111.479 37.3631C111.479 36.974 111.762 36.7263 112.328 36.6909C114.522 36.514 114.522 35.3111 114.522 32.4099V16.8424C114.522 13.9412 114.522 12.7383 112.328 12.5614C111.762 12.526 111.479 12.2783 111.479 11.8891C111.479 11.5 111.798 11.2523 112.328 11.2523H122.412C127.33 11.2523 131.151 14.012 131.151 18.1515C131.151 21.6896 128.32 24.2723 125.207 25.1569C124.747 25.2984 124.641 25.5814 124.888 25.9706L129.665 33.3298C131.257 35.7356 132.708 36.514 134.052 36.6909C134.406 36.7263 134.583 36.974 134.583 37.3631C134.583 37.7523 134.37 38 134.052 38H126.551C126.021 38 125.702 37.7523 125.702 37.3631C125.702 36.974 125.985 36.7263 126.551 36.6909C128.745 36.514 127.259 35.7356 125.667 33.3298L120.855 25.9706C120.678 25.6876 120.395 25.546 120.077 25.546L118.838 25.5814C118.449 25.5814 118.201 25.8645 118.201 26.2537V32.4099C118.201 35.3111 118.201 36.514 120.395 36.6909C120.961 36.7263 121.244 36.974 121.244 37.3631C121.244 37.7523 120.926 38 120.395 38H112.328ZM118.201 23.3524C118.201 23.7416 118.414 23.9893 118.803 24.0247C119.652 24.0954 120.43 24.1308 120.926 24.1308C124.145 24.1308 127.224 21.8311 127.224 18.5407C127.224 15.1795 124.039 12.7737 120.82 12.7737C120.395 12.7737 119.617 12.809 118.768 12.9859C118.378 13.0567 118.201 13.3397 118.201 13.6936V23.3524ZM150.03 25.4045C151.799 26.8905 152.649 29.0133 152.649 31.03C152.649 34.7096 149.818 38.283 144.617 38.283C143.096 38.283 142.317 37.9646 140.619 37.3985C139.452 36.974 138.709 36.7617 138.461 36.7617C137.86 36.7617 137.647 37.2216 137.541 37.717C137.435 38.0708 137.293 38.283 137.01 38.283C136.727 38.283 136.55 38.0354 136.55 37.6462V29.6502C136.55 29.261 136.727 29.0133 137.01 29.0133C137.293 29.0133 137.47 29.1902 137.541 29.5794C138.249 33.2236 139.841 36.6202 144.228 36.6202C147.695 36.6202 149.252 34.745 149.252 32.5514C149.252 31.1008 148.58 29.7563 147.271 28.7303C146.811 28.3411 145.537 27.492 143.45 26.2183C139.098 23.5293 136.338 21.5127 136.338 17.7269C136.338 14.0474 138.956 10.9692 143.874 10.9692C144.9 10.9692 146.209 11.1108 147.695 11.783C148.332 12.1014 148.792 12.2783 149.04 12.2783C149.641 12.2783 149.889 11.8184 150.066 11.3231C150.172 10.9339 150.349 10.757 150.632 10.757C150.88 10.757 151.056 11.0046 151.056 11.3938V19.4606C151.056 19.8498 150.915 20.0974 150.632 20.0974C150.349 20.0974 150.172 19.8851 150.101 19.496C149.641 16.3117 147.908 12.4552 143.91 12.4552C141.008 12.4552 139.381 14.295 139.381 16.1702C139.381 18.8237 142.636 20.6989 145.396 22.3264C147.66 23.6355 149.217 24.6969 150.03 25.4045ZM155.621 38C155.09 38 154.772 37.7523 154.772 37.3631C154.772 36.974 155.055 36.7263 155.621 36.6909C157.815 36.514 157.815 35.3111 157.815 32.4099V16.8424C157.815 13.9412 157.815 12.7383 155.621 12.5614C155.055 12.526 154.772 12.2783 154.772 11.8891C154.772 11.5 155.09 11.2523 155.621 11.2523H163.688C164.219 11.2523 164.537 11.5 164.537 11.8891C164.537 12.2783 164.254 12.526 163.688 12.5614C161.494 12.7383 161.494 13.9412 161.494 16.8424V32.4099C161.494 35.3111 161.494 36.514 163.688 36.6909C164.254 36.7263 164.537 36.974 164.537 37.3631C164.537 37.7523 164.219 38 163.688 38H155.621ZM165.754 11.8891C165.754 11.5 166.037 11.2523 166.427 11.2523H185.32C185.709 11.2523 185.992 11.5 185.992 11.8891L186.027 12.9506L186.134 16.7717C186.169 17.6208 185.957 18.1869 185.567 18.1869C185.178 18.2223 184.895 17.7623 184.824 16.807C184.541 13.0567 183.339 13.0213 180.437 13.0213H178.35C177.961 13.0213 177.713 13.269 177.713 13.6582V32.4099C177.713 35.3111 177.713 36.514 179.907 36.6909C180.473 36.7263 180.756 36.974 180.756 37.3631C180.756 37.7523 180.437 38 179.907 38H171.84C171.309 38 170.991 37.7523 170.991 37.3631C170.991 36.974 171.274 36.7263 171.84 36.6909C174.033 36.514 174.033 35.3111 174.033 32.4099V13.6582C174.033 13.269 173.786 13.0213 173.397 13.0213H171.309C168.408 13.0213 167.205 13.0567 166.922 16.807C166.851 17.7623 166.568 18.2223 166.179 18.1869C165.79 18.1869 165.577 17.6208 165.613 16.7717L165.719 12.9506L165.754 11.8891ZM195.354 38C194.823 38 194.505 37.7523 194.505 37.3631C194.505 36.974 194.788 36.7263 195.354 36.6909C197.548 36.514 197.548 35.3111 197.548 32.4099V27.4566L191.321 16.1348C189.941 13.6228 188.632 12.7383 187.323 12.5614C186.969 12.526 186.827 12.2783 186.827 11.8891C186.827 11.5 187.004 11.2523 187.323 11.2523H195.177C195.779 11.2523 196.168 11.5 196.168 11.8891C196.168 12.2783 195.849 12.526 195.177 12.5614C192.524 12.7383 193.868 13.5874 195.354 16.0994L200.413 24.803L205.048 16.1702C206.428 13.6228 207.702 12.7383 205.048 12.5614C204.376 12.526 204.058 12.2783 204.058 11.8891C204.058 11.5 204.447 11.2523 205.048 11.2523H210.851C211.169 11.2523 211.346 11.5 211.346 11.8891C211.346 12.2783 211.205 12.526 210.851 12.5614C209.542 12.7383 208.303 13.6582 206.994 16.241L201.227 27.4212V32.4099C201.227 35.3111 201.227 36.514 203.421 36.6909C203.987 36.7263 204.27 36.974 204.27 37.3631C204.27 37.7523 203.952 38 203.421 38H195.354Z" fill="white"/>
<path d="M0.940622 103.407C0.940622 99.5706 3.65433 95.1634 8.18399 95.1634C9.34701 95.1634 10.102 95.4491 11.1017 96C11.4486 96.204 11.5506 96.2448 11.6935 96.2448C12.1015 96.2448 12.3056 95.8571 12.4076 95.4899C12.4688 95.2654 12.5912 95.1634 12.734 95.1634C12.8769 95.1634 12.9585 95.2654 12.9789 95.5103L13.2645 100.081C13.285 100.326 13.1829 100.468 13.0401 100.468C12.8769 100.468 12.7749 100.366 12.7136 100.162C12.1219 98.1016 10.9589 96.0612 8.2656 96.0612C4.42968 96.0612 3.28706 100.183 3.28706 103.101C3.28706 106.039 4.5113 109.834 8.49005 109.834C10.7753 109.834 11.8363 108.569 12.9381 106.916C13.0809 106.732 13.2237 106.671 13.387 106.753C13.5502 106.834 13.5706 106.998 13.4686 107.222C12.3464 109.262 10.7549 110.915 7.75551 110.915C2.9606 110.915 0.940622 106.651 0.940622 103.407ZM17.3812 104.264C18.483 107.977 20.8498 110.385 23.5635 109.569C26.2773 108.752 26.971 105.427 25.8692 101.713C24.747 97.9791 22.4005 95.7551 19.6868 96.5713C16.9731 97.3874 16.259 100.53 17.3812 104.264ZM14.7491 102.978C14.7491 98.4484 17.8709 95.1634 21.6456 95.1634C25.4203 95.1634 28.5421 98.4484 28.5421 102.978C28.5421 107.447 25.5223 110.915 21.6456 110.915C17.7689 110.915 14.7491 107.447 14.7491 102.978ZM42.1173 111.017C41.9745 111.017 41.8317 110.936 41.7297 110.793L33.2213 99.285C33.0172 98.9993 32.7724 99.081 32.7724 99.4278V107.528C32.7724 109.201 32.7724 109.895 34.0374 109.997C34.3639 110.017 34.5271 110.16 34.5271 110.385C34.5271 110.609 34.3435 110.752 34.0374 110.752H30.4871C30.1811 110.752 29.9975 110.609 29.9975 110.385C29.9975 110.16 30.1607 110.017 30.4871 109.997C31.7522 109.895 31.7522 109.201 31.7522 107.528V97.5507C31.7522 97.367 31.7114 97.2446 31.589 97.1018C31.0585 96.5101 30.2423 96.1836 29.6098 96.0816C29.4466 96.0612 29.3649 95.9184 29.3649 95.6939C29.3649 95.4695 29.467 95.3266 29.6098 95.3266H32.4867C32.6704 95.3266 32.8132 95.4083 32.9356 95.5511L40.8523 106.141C41.0563 106.426 41.3012 106.324 41.3012 105.977V98.5505C41.3012 96.8773 41.3012 96.1836 40.0362 96.0816C39.7097 96.0612 39.5465 95.9184 39.5465 95.6939C39.5465 95.4695 39.7301 95.3266 40.0362 95.3266H43.5864C43.8925 95.3266 44.0761 95.4695 44.0761 95.6939C44.0761 95.9184 43.9129 96.0612 43.5864 96.0816C42.3214 96.1836 42.3214 96.8773 42.3214 98.5505L42.3418 110.65C42.3418 110.874 42.2602 111.017 42.1173 111.017ZM45.0958 103.407C45.0958 99.5706 47.8095 95.1634 52.3392 95.1634C53.5022 95.1634 54.2572 95.4491 55.2569 96C55.6038 96.204 55.7058 96.2448 55.8487 96.2448C56.2567 96.2448 56.4608 95.8571 56.5628 95.4899C56.624 95.2654 56.7464 95.1634 56.8893 95.1634C57.0321 95.1634 57.1137 95.2654 57.1341 95.5103L57.4198 100.081C57.4402 100.326 57.3381 100.468 57.1953 100.468C57.0321 100.468 56.9301 100.366 56.8688 100.162C56.2771 98.1016 55.1141 96.0612 52.4208 96.0612C48.5849 96.0612 47.4423 100.183 47.4423 103.101C47.4423 106.039 48.6665 109.834 52.6453 109.834C54.9305 109.834 55.9915 108.569 57.0933 106.916C57.2361 106.732 57.3789 106.671 57.5422 106.753C57.7054 106.834 57.7258 106.998 57.6238 107.222C56.5016 109.262 54.9101 110.915 51.9107 110.915C47.1158 110.915 45.0958 106.651 45.0958 103.407ZM59.1899 110.752C58.8839 110.752 58.7003 110.609 58.7003 110.385C58.7003 110.16 58.8635 110.017 59.1899 109.997C60.455 109.895 60.455 109.201 60.455 107.528V98.5505C60.455 96.8773 60.455 96.1836 59.1899 96.0816C58.8635 96.0612 58.7003 95.9184 58.7003 95.6939C58.7003 95.4695 58.8839 95.3266 59.1899 95.3266H65.005C67.8412 95.3266 70.0448 96.9181 70.0448 99.3054C70.0448 101.346 68.4125 102.835 66.6169 103.345C66.3517 103.427 66.2905 103.59 66.4333 103.815L69.1878 108.059C70.106 109.446 70.9426 109.895 71.7179 109.997C71.9219 110.017 72.024 110.16 72.024 110.385C72.024 110.609 71.9015 110.752 71.7179 110.752H67.3923C67.0862 110.752 66.9026 110.609 66.9026 110.385C66.9026 110.16 67.0658 110.017 67.3923 109.997C68.6573 109.895 67.8004 109.446 66.8822 108.059L64.1073 103.815C64.0053 103.651 63.842 103.57 63.6584 103.57L62.9443 103.59C62.7198 103.59 62.577 103.753 62.577 103.978V107.528C62.577 109.201 62.577 109.895 63.842 109.997C64.1685 110.017 64.3317 110.16 64.3317 110.385C64.3317 110.609 64.1481 110.752 63.842 110.752H59.1899ZM62.577 102.305C62.577 102.529 62.6994 102.672 62.9238 102.692C63.4135 102.733 63.8624 102.754 64.1481 102.754C66.0048 102.754 67.78 101.427 67.78 99.5298C67.78 97.5915 65.9436 96.204 64.0869 96.204C63.842 96.204 63.3931 96.2244 62.9034 96.3264C62.679 96.3672 62.577 96.5305 62.577 96.7345V102.305ZM73.118 110.752C72.8119 110.752 72.6283 110.609 72.6283 110.385C72.6283 110.16 72.7915 110.017 73.118 109.997C74.383 109.895 74.383 109.201 74.383 107.528V98.5505C74.383 96.8773 74.383 96.1836 73.118 96.0816C72.7915 96.0612 72.6283 95.9184 72.6283 95.6939C72.6283 95.4695 72.8119 95.3266 73.118 95.3266H82.9934C83.2179 95.3266 83.3403 95.4287 83.3607 95.6735L83.4015 96.204L83.5239 98.1016C83.5647 98.53 83.4423 98.8157 83.2179 98.8157C82.9934 98.8361 82.8302 98.6117 82.7894 98.1628C82.5445 96.306 81.8508 96.2448 80.1777 96.2448H76.8723C76.6478 96.2448 76.505 96.3876 76.505 96.6121V101.856C76.505 102.08 76.6478 102.223 76.8723 102.223H78.9535C80.6266 102.223 81.3203 102.223 81.4223 100.754C81.4427 100.387 81.5856 100.203 81.81 100.203C82.0344 100.203 82.1773 100.407 82.1773 100.754V104.61C82.1773 104.937 82.0344 105.161 81.81 105.161C81.5856 105.161 81.4427 104.978 81.4223 104.61C81.3203 103.141 80.6266 103.141 78.9535 103.141H76.8723C76.6478 103.141 76.505 103.284 76.505 103.509V109.018C76.505 109.548 76.8723 109.834 77.566 109.834H80.1573C81.8304 109.834 82.5241 109.711 82.973 107.487C83.0954 106.936 83.2791 106.692 83.5035 106.712C83.7076 106.753 83.8096 107.1 83.728 107.61L83.3811 109.875L83.2383 110.752H73.118ZM84.4413 95.6939C84.4413 95.4695 84.6045 95.3266 84.829 95.3266H95.7246C95.9491 95.3266 96.1123 95.4695 96.1123 95.6939L96.1327 96.306L96.1939 98.5096C96.2143 98.9993 96.0919 99.3258 95.8675 99.3258C95.643 99.3462 95.4798 99.081 95.439 98.53C95.2757 96.3672 94.582 96.3468 92.9089 96.3468H91.7051C91.4806 96.3468 91.3378 96.4897 91.3378 96.7141V107.528C91.3378 109.201 91.3378 109.895 92.6028 109.997C92.9293 110.017 93.0925 110.16 93.0925 110.385C93.0925 110.609 92.9089 110.752 92.6028 110.752H87.9508C87.6447 110.752 87.4611 110.609 87.4611 110.385C87.4611 110.16 87.6243 110.017 87.9508 109.997C89.2158 109.895 89.2158 109.201 89.2158 107.528V96.7141C89.2158 96.4897 89.073 96.3468 88.8485 96.3468H87.6447C85.9716 96.3468 85.2779 96.3672 85.1146 98.53C85.0738 99.081 84.9106 99.3462 84.6861 99.3258C84.4617 99.3258 84.3393 98.9993 84.3597 98.5096L84.4209 96.306L84.4413 95.6939ZM97.2878 110.752C96.9817 110.752 96.7981 110.609 96.7981 110.385C96.7981 110.16 96.9613 110.017 97.2878 109.997C98.5528 109.895 98.5528 109.201 98.5528 107.528V98.5505C98.5528 96.8773 98.5528 96.1836 97.2878 96.0816C96.9613 96.0612 96.7981 95.9184 96.7981 95.6939C96.7981 95.4695 96.9817 95.3266 97.2878 95.3266H107.163C107.388 95.3266 107.51 95.4287 107.53 95.6735L107.571 96.204L107.694 98.1016C107.735 98.53 107.612 98.8157 107.388 98.8157C107.163 98.8361 107 98.6117 106.959 98.1628C106.714 96.306 106.021 96.2448 104.347 96.2448H101.042C100.818 96.2448 100.675 96.3876 100.675 96.6121V101.856C100.675 102.08 100.818 102.223 101.042 102.223H103.123C104.796 102.223 105.49 102.223 105.592 100.754C105.613 100.387 105.755 100.203 105.98 100.203C106.204 100.203 106.347 100.407 106.347 100.754V104.61C106.347 104.937 106.204 105.161 105.98 105.161C105.755 105.161 105.613 104.978 105.592 104.61C105.49 103.141 104.796 103.141 103.123 103.141H101.042C100.818 103.141 100.675 103.284 100.675 103.509V109.018C100.675 109.548 101.042 109.834 101.736 109.834H104.327C106 109.834 106.694 109.711 107.143 107.487C107.265 106.936 107.449 106.692 107.673 106.712C107.877 106.753 107.979 107.1 107.898 107.61L107.551 109.875L107.408 110.752H97.2878ZM113.022 103.407C113.022 99.5706 115.736 95.1634 120.266 95.1634C121.429 95.1634 122.184 95.4491 123.183 96C123.53 96.204 123.632 96.2448 123.775 96.2448C124.183 96.2448 124.387 95.8571 124.489 95.4899C124.55 95.2654 124.673 95.1634 124.816 95.1634C124.959 95.1634 125.04 95.2654 125.061 95.5103L125.346 100.081C125.367 100.326 125.265 100.468 125.122 100.468C124.959 100.468 124.857 100.366 124.795 100.162C124.204 98.1016 123.041 96.0612 120.347 96.0612C116.511 96.0612 115.369 100.183 115.369 103.101C115.369 106.039 116.593 109.834 120.572 109.834C122.857 109.834 123.918 108.569 125.02 106.916C125.163 106.732 125.305 106.671 125.469 106.753C125.632 106.834 125.652 106.998 125.55 107.222C124.428 109.262 122.837 110.915 119.837 110.915C115.042 110.915 113.022 106.651 113.022 103.407ZM126.31 110.752C126.126 110.752 126.024 110.609 126.024 110.385C126.024 110.16 126.106 110.017 126.31 109.997C127.065 109.895 127.616 109.303 128.207 107.732L132.921 95.245C132.982 95.0614 133.104 94.9594 133.268 94.9594C133.431 94.9594 133.553 95.0614 133.635 95.245L138.491 107.753C139.083 109.303 139.654 109.895 140.409 109.997C140.613 110.017 140.695 110.16 140.695 110.385C140.695 110.609 140.593 110.752 140.409 110.752H135.879C135.532 110.752 135.308 110.609 135.308 110.385C135.308 110.16 135.492 110.017 135.879 109.997C137.41 109.895 136.838 109.303 136.247 107.753L135.512 105.875C135.43 105.692 135.308 105.59 135.104 105.59H130.391C130.187 105.59 130.064 105.692 129.983 105.875L129.268 107.732C128.677 109.303 128.126 109.895 129.656 109.997C130.044 110.017 130.227 110.16 130.227 110.385C130.227 110.609 130.003 110.752 129.656 110.752H126.31ZM130.595 104.243C130.493 104.488 130.615 104.672 130.88 104.672H134.594C134.859 104.672 134.981 104.488 134.879 104.243L132.961 99.2646C132.839 98.9381 132.594 98.9381 132.472 99.2646L130.595 104.243ZM153.86 111.017C153.717 111.017 153.575 110.936 153.473 110.793L144.964 99.285C144.76 98.9993 144.515 99.081 144.515 99.4278V107.528C144.515 109.201 144.515 109.895 145.78 109.997C146.107 110.017 146.27 110.16 146.27 110.385C146.27 110.609 146.086 110.752 145.78 110.752H142.23C141.924 110.752 141.74 110.609 141.74 110.385C141.74 110.16 141.904 110.017 142.23 109.997C143.495 109.895 143.495 109.201 143.495 107.528V97.5507C143.495 97.367 143.454 97.2446 143.332 97.1018C142.801 96.5101 141.985 96.1836 141.353 96.0816C141.19 96.0612 141.108 95.9184 141.108 95.6939C141.108 95.4695 141.21 95.3266 141.353 95.3266H144.23C144.413 95.3266 144.556 95.4083 144.679 95.5511L152.595 106.141C152.799 106.426 153.044 106.324 153.044 105.977V98.5505C153.044 96.8773 153.044 96.1836 151.779 96.0816C151.453 96.0612 151.289 95.9184 151.289 95.6939C151.289 95.4695 151.473 95.3266 151.779 95.3266H155.329C155.635 95.3266 155.819 95.4695 155.819 95.6939C155.819 95.9184 155.656 96.0612 155.329 96.0816C154.064 96.1836 154.064 96.8773 154.064 98.5505L154.085 110.65C154.085 110.874 154.003 111.017 153.86 111.017ZM159.471 104.264C160.573 107.977 162.94 110.385 165.653 109.569C168.367 108.752 169.061 105.427 167.959 101.713C166.837 97.9791 164.49 95.7551 161.777 96.5713C159.063 97.3874 158.349 100.53 159.471 104.264ZM156.839 102.978C156.839 98.4484 159.961 95.1634 163.735 95.1634C167.51 95.1634 170.632 98.4484 170.632 102.978C170.632 107.447 167.612 110.915 163.735 110.915C159.859 110.915 156.839 107.447 156.839 102.978ZM172.148 110.752C171.842 110.752 171.659 110.609 171.659 110.385C171.659 110.16 171.822 110.017 172.148 109.997C173.413 109.895 173.413 109.201 173.413 107.528V98.5505C173.413 96.8773 173.413 96.1836 172.148 96.0816C171.822 96.0612 171.659 95.9184 171.659 95.6939C171.659 95.4695 171.842 95.3266 172.148 95.3266H182.024C182.248 95.3266 182.371 95.4287 182.391 95.6735L182.432 96.204L182.554 98.1016C182.595 98.53 182.473 98.8157 182.248 98.8157C182.024 98.8361 181.861 98.6117 181.82 98.1628C181.575 96.306 180.881 96.2448 179.208 96.2448H175.903C175.678 96.2448 175.535 96.3876 175.535 96.6121V101.856C175.535 102.08 175.678 102.223 175.903 102.223H177.984C179.657 102.223 180.351 102.223 180.453 100.754C180.473 100.387 180.616 100.203 180.84 100.203C181.065 100.203 181.208 100.407 181.208 100.754V104.61C181.208 104.937 181.065 105.161 180.84 105.161C180.616 105.161 180.473 104.978 180.453 104.61C180.351 103.141 179.657 103.141 177.984 103.141H175.903C175.678 103.141 175.535 103.284 175.535 103.509V109.018C175.535 109.548 175.903 109.834 176.596 109.834H179.188C180.861 109.834 181.555 109.711 182.003 107.487C182.126 106.936 182.309 106.692 182.534 106.712C182.738 106.753 182.84 107.1 182.758 107.61L182.412 109.875L182.269 110.752H172.148ZM187.883 103.407C187.883 99.5706 190.597 95.1634 195.126 95.1634C196.289 95.1634 197.044 95.4491 198.044 96C198.391 96.204 198.493 96.2448 198.636 96.2448C199.044 96.2448 199.248 95.8571 199.35 95.4899C199.411 95.2654 199.534 95.1634 199.676 95.1634C199.819 95.1634 199.901 95.2654 199.921 95.5103L200.207 100.081C200.227 100.326 200.125 100.468 199.982 100.468C199.819 100.468 199.717 100.366 199.656 100.162C199.064 98.1016 197.901 96.0612 195.208 96.0612C191.372 96.0612 190.229 100.183 190.229 103.101C190.229 106.039 191.454 109.834 195.432 109.834C197.718 109.834 198.779 108.569 199.88 106.916C200.023 106.732 200.166 106.671 200.329 106.753C200.492 106.834 200.513 106.998 200.411 107.222C199.289 109.262 197.697 110.915 194.698 110.915C189.903 110.915 187.883 106.651 187.883 103.407ZM201.977 110.752C201.671 110.752 201.487 110.609 201.487 110.385C201.487 110.16 201.651 110.017 201.977 109.997C203.242 109.895 203.242 109.201 203.242 107.528V98.5505C203.242 96.8773 203.242 96.1836 201.977 96.0816C201.651 96.0612 201.487 95.9184 201.487 95.6939C201.487 95.4695 201.671 95.3266 201.977 95.3266H206.629C206.935 95.3266 207.119 95.4695 207.119 95.6939C207.119 95.9184 206.956 96.0612 206.629 96.0816C205.364 96.1836 205.364 96.8773 205.364 98.5505V108.854C205.364 109.385 205.731 109.671 206.425 109.671H208.363C210.383 109.671 211.22 109.528 211.648 107.324C211.75 106.753 211.955 106.508 212.22 106.549C212.505 106.569 212.628 106.936 212.546 107.447L212.24 109.711L212.138 110.405C212.118 110.63 211.975 110.752 211.75 110.752H201.977ZM219.544 110.956C214.729 110.956 214.219 107.855 214.219 103.917V98.5505C214.219 96.8773 214.219 96.1836 212.954 96.0816C212.627 96.0612 212.464 95.9184 212.464 95.6939C212.464 95.4695 212.648 95.3266 212.954 95.3266H217.545C217.851 95.3266 218.034 95.4695 218.034 95.6939C218.034 95.9184 217.871 96.0612 217.545 96.0816C216.279 96.1836 216.279 96.8773 216.279 98.5505V104.61C216.279 106.936 216.443 109.895 219.973 109.895C223.054 109.895 224.135 107.671 224.135 104.978V98.5505C224.135 96.8773 224.135 96.1836 222.87 96.0816C222.543 96.0612 222.38 95.9184 222.38 95.6939C222.38 95.4695 222.564 95.3266 222.87 95.3266H226.441C226.747 95.3266 226.93 95.4695 226.93 95.6939C226.93 95.9184 226.767 96.0612 226.441 96.0816C225.176 96.1836 225.176 96.8773 225.176 98.5505V105.08C225.176 108.079 224.278 110.956 219.544 110.956ZM228.139 110.752C227.833 110.752 227.65 110.609 227.65 110.385C227.65 110.16 227.813 110.017 228.139 109.997C229.404 109.895 229.404 109.201 229.404 107.528V98.5505C229.404 96.8773 229.404 96.1836 228.139 96.0816C227.813 96.0612 227.65 95.9184 227.65 95.6939C227.65 95.4695 227.833 95.3266 228.139 95.3266H233.954C237.321 95.3266 239.443 96.9181 239.443 99.4278C239.443 101.121 238.566 102.284 236.872 102.835C238.77 103.427 240.055 104.692 240.055 106.63C240.055 109.16 237.892 110.752 234.526 110.752H228.139ZM231.526 109.324C231.526 109.548 231.628 109.691 231.853 109.711C232.547 109.834 233.608 109.875 234.097 109.875C236.26 109.875 237.586 108.508 237.586 106.61C237.586 104.672 236.199 103.243 233.342 103.243C233.057 103.243 232.424 103.264 231.873 103.305C231.649 103.325 231.526 103.468 231.526 103.692V109.324ZM231.526 101.897C231.526 102.121 231.628 102.244 231.853 102.284C232.424 102.366 233.098 102.386 233.648 102.386C235.73 102.386 237.158 101.427 237.158 99.5298C237.158 97.5915 235.668 96.1428 233.526 96.1428C233.036 96.1428 232.404 96.1836 231.853 96.2856C231.628 96.3264 231.526 96.4489 231.526 96.6733V101.897Z" fill="white"/>
<rect y="119.166" width="240.615" height="1.15495" fill="#5293C2"/>
<rect y="85.6721" width="240.615" height="1.15495" fill="#5293C2"/>
</svg>
