<svg width="441" height="221" viewBox="0 0 441 221" fill="none" xmlns="http://www.w3.org/2000/svg">
<path d="M403.761 57.4322C405.773 57.4322 407.364 56.7655 408.533 55.4322C409.703 54.0755 410.288 52.1925 410.288 49.7831V44.099C410.288 41.6897 409.703 39.8184 408.533 38.485C407.364 37.1283 405.773 36.45 403.761 36.45C401.75 36.45 400.159 37.1283 398.99 38.485C397.82 39.8184 397.235 41.6897 397.235 44.099V49.7831C397.235 52.1925 397.82 54.0755 398.99 55.4322C400.159 56.7655 401.75 57.4322 403.761 57.4322ZM403.761 59.6076C402.124 59.6076 400.627 59.3269 399.27 58.7655C397.914 58.1807 396.744 57.3503 395.762 56.2743C394.779 55.1749 394.007 53.8416 393.446 52.2743C392.908 50.7071 392.639 48.9294 392.639 46.9411C392.639 44.9528 392.908 43.175 393.446 41.6078C394.007 40.0406 394.779 38.719 395.762 37.643C396.744 36.5436 397.914 35.7132 399.27 35.1518C400.627 34.567 402.124 34.2746 403.761 34.2746C405.399 34.2746 406.896 34.567 408.253 35.1518C409.609 35.7132 410.779 36.5436 411.761 37.643C412.744 38.719 413.504 40.0406 414.042 41.6078C414.603 43.175 414.884 44.9528 414.884 46.9411C414.884 48.9294 414.603 50.7071 414.042 52.2743C413.504 53.8416 412.744 55.1749 411.761 56.2743C410.779 57.3503 409.609 58.1807 408.253 58.7655C406.896 59.3269 405.399 59.6076 403.761 59.6076ZM418.404 57.2918H420.966V36.5903H418.404V34.6956H437.141V40.871H433.948V36.7658H425.141V45.9937H431.106V43.5025H433.422V50.5551H431.106V48.0639H425.141V57.2918H428.404V59.1865H418.404V57.2918Z" fill="black"/>
<rect x="392.174" y="67.7275" width="45.1778" height="2.54523" fill="#5293C2"/>
<path d="M1.85926 113.584C1.85926 101.933 10.102 88.5459 23.8605 88.5459C27.3931 88.5459 29.6862 89.4136 32.7229 91.0869C33.7765 91.7066 34.0864 91.8306 34.5202 91.8306C35.7597 91.8306 36.3795 90.6531 36.6894 89.5375C36.8753 88.8558 37.2471 88.5459 37.681 88.5459C38.1148 88.5459 38.3627 88.8558 38.4247 89.5995L39.2923 103.482C39.3543 104.226 39.0444 104.659 38.6106 104.659C38.1148 104.659 37.8049 104.35 37.619 103.73C35.8217 97.4703 32.2891 91.2728 24.1084 91.2728C12.457 91.2728 8.98642 103.792 8.98642 112.654C8.98642 121.579 12.7049 133.106 24.7901 133.106C31.7313 133.106 34.9541 129.264 38.3007 124.244C38.7345 123.686 39.1684 123.5 39.6642 123.748C40.16 123.996 40.222 124.492 39.9121 125.173C36.5034 131.371 31.6694 136.391 22.559 136.391C7.99481 136.391 1.85926 123.438 1.85926 113.584ZM51.7963 116.187C55.143 127.466 62.3321 134.779 70.5748 132.3C78.8175 129.821 80.9247 119.719 77.578 108.44C74.1694 97.0985 67.0422 90.3432 58.7995 92.8222C50.5568 95.3012 48.3877 104.845 51.7963 116.187ZM43.8015 112.282C43.8015 98.5239 53.2837 88.5459 64.7492 88.5459C76.2146 88.5459 85.6968 98.5239 85.6968 112.282C85.6968 125.855 76.5245 136.391 64.7492 136.391C52.9738 136.391 43.8015 125.855 43.8015 112.282ZM126.931 136.701C126.497 136.701 126.063 136.453 125.753 136.019L99.9095 101.065C99.2897 100.197 98.546 100.445 98.546 101.499V126.103C98.546 131.185 98.546 133.292 102.388 133.602C103.38 133.664 103.876 134.098 103.876 134.779C103.876 135.461 103.318 135.895 102.388 135.895H91.6048C90.6751 135.895 90.1174 135.461 90.1174 134.779C90.1174 134.098 90.6132 133.664 91.6048 133.602C95.4472 133.292 95.4472 131.185 95.4472 126.103V95.797C95.4472 95.2392 95.3233 94.8674 94.9514 94.4336C93.3401 92.6363 90.8611 91.6447 88.9398 91.3348C88.444 91.2728 88.1961 90.839 88.1961 90.1573C88.1961 89.4755 88.506 89.0417 88.9398 89.0417H97.6784C98.2361 89.0417 98.67 89.2896 99.0418 89.7234L123.088 121.889C123.708 122.756 124.452 122.446 124.452 121.393V98.8338C124.452 93.7518 124.452 91.6447 120.609 91.3348C119.618 91.2728 119.122 90.839 119.122 90.1573C119.122 89.4755 119.68 89.0417 120.609 89.0417H131.393C132.323 89.0417 132.88 89.4755 132.88 90.1573C132.88 90.839 132.385 91.2728 131.393 91.3348C127.55 91.6447 127.55 93.7518 127.55 98.8338L127.612 135.585C127.612 136.267 127.365 136.701 126.931 136.701ZM173.473 136.701C173.039 136.701 172.605 136.453 172.295 136.019L146.451 101.065C145.832 100.197 145.088 100.445 145.088 101.499V126.103C145.088 131.185 145.088 133.292 148.93 133.602C149.922 133.664 150.418 134.098 150.418 134.779C150.418 135.461 149.86 135.895 148.93 135.895H138.147C137.217 135.895 136.659 135.461 136.659 134.779C136.659 134.098 137.155 133.664 138.147 133.602C141.989 133.292 141.989 131.185 141.989 126.103V95.797C141.989 95.2392 141.865 94.8674 141.493 94.4336C139.882 92.6363 137.403 91.6447 135.482 91.3348C134.986 91.2728 134.738 90.839 134.738 90.1573C134.738 89.4755 135.048 89.0417 135.482 89.0417H144.22C144.778 89.0417 145.212 89.2896 145.584 89.7234L169.63 121.889C170.25 122.756 170.994 122.446 170.994 121.393V98.8338C170.994 93.7518 170.994 91.6447 167.151 91.3348C166.16 91.2728 165.664 90.839 165.664 90.1573C165.664 89.4755 166.222 89.0417 167.151 89.0417H177.935C178.865 89.0417 179.422 89.4755 179.422 90.1573C179.422 90.839 178.926 91.2728 177.935 91.3348C174.092 91.6447 174.092 93.7518 174.092 98.8338L174.154 135.585C174.154 136.267 173.906 136.701 173.473 136.701ZM183.387 135.895C182.458 135.895 181.9 135.461 181.9 134.779C181.9 134.098 182.396 133.664 183.387 133.602C187.23 133.292 187.23 131.185 187.23 126.103V98.8338C187.23 93.7518 187.23 91.6447 183.387 91.3348C182.396 91.2728 181.9 90.839 181.9 90.1573C181.9 89.4755 182.458 89.0417 183.387 89.0417H213.383C214.065 89.0417 214.437 89.3516 214.499 90.0953L214.623 91.7066L214.995 97.4703C215.119 98.7718 214.747 99.6395 214.065 99.6395C213.383 99.7015 212.887 99.0197 212.764 97.6563C212.02 92.0165 209.913 91.8306 204.831 91.8306H194.791C194.109 91.8306 193.675 92.2644 193.675 92.9462V108.874C193.675 109.556 194.109 109.989 194.791 109.989H201.112C206.194 109.989 208.301 109.989 208.611 105.527C208.673 104.412 209.107 103.854 209.789 103.854C210.47 103.854 210.904 104.474 210.904 105.527V117.24C210.904 118.232 210.47 118.914 209.789 118.914C209.107 118.914 208.673 118.356 208.611 117.24C208.301 112.778 206.194 112.778 201.112 112.778H194.791C194.109 112.778 193.675 113.212 193.675 113.894V130.627C193.675 132.238 194.791 133.106 196.898 133.106H204.769C209.851 133.106 211.958 132.734 213.321 125.979C213.693 124.306 214.251 123.562 214.933 123.624C215.552 123.748 215.862 124.801 215.614 126.351L214.561 133.23L214.127 135.895H183.387ZM218.773 113.584C218.773 101.933 227.015 88.5459 240.774 88.5459C244.307 88.5459 246.6 89.4136 249.636 91.0869C250.69 91.7066 251 91.8306 251.434 91.8306C252.673 91.8306 253.293 90.6531 253.603 89.5375C253.789 88.8558 254.161 88.5459 254.594 88.5459C255.028 88.5459 255.276 88.8558 255.338 89.5995L256.206 103.482C256.268 104.226 255.958 104.659 255.524 104.659C255.028 104.659 254.718 104.35 254.532 103.73C252.735 97.4703 249.203 91.2728 241.022 91.2728C229.37 91.2728 225.9 103.792 225.9 112.654C225.9 121.579 229.618 133.106 241.704 133.106C248.645 133.106 251.868 129.264 255.214 124.244C255.648 123.686 256.082 123.5 256.578 123.748C257.073 123.996 257.135 124.492 256.826 125.173C253.417 131.371 248.583 136.391 239.472 136.391C224.908 136.391 218.773 123.438 218.773 113.584ZM259.723 90.1573C259.723 89.4755 260.219 89.0417 260.901 89.0417H293.996C294.677 89.0417 295.173 89.4755 295.173 90.1573L295.235 92.0165L295.421 98.7099C295.483 100.197 295.111 101.189 294.43 101.189C293.748 101.251 293.252 100.445 293.128 98.7718C292.632 92.2024 290.525 92.1405 285.443 92.1405H281.787C281.105 92.1405 280.671 92.5743 280.671 93.256V126.103C280.671 131.185 280.671 133.292 284.513 133.602C285.505 133.664 286.001 134.098 286.001 134.779C286.001 135.461 285.443 135.895 284.513 135.895H270.383C269.453 135.895 268.896 135.461 268.896 134.779C268.896 134.098 269.392 133.664 270.383 133.602C274.226 133.292 274.226 131.185 274.226 126.103V93.256C274.226 92.5743 273.792 92.1405 273.11 92.1405H269.453C264.372 92.1405 262.264 92.2024 261.769 98.7718C261.645 100.445 261.149 101.251 260.467 101.189C259.785 101.189 259.413 100.197 259.475 98.7099L259.661 92.0165L259.723 90.1573ZM298.744 135.895C297.814 135.895 297.256 135.461 297.256 134.779C297.256 134.098 297.752 133.664 298.744 133.602C302.586 133.292 302.586 131.185 302.586 126.103V98.8338C302.586 93.7518 302.586 91.6447 298.744 91.3348C297.752 91.2728 297.256 90.839 297.256 90.1573C297.256 89.4755 297.814 89.0417 298.744 89.0417H312.874C313.804 89.0417 314.361 89.4755 314.361 90.1573C314.361 90.839 313.866 91.2728 312.874 91.3348C309.031 91.6447 309.031 93.7518 309.031 98.8338V126.103C309.031 131.185 309.031 133.292 312.874 133.602C313.866 133.664 314.361 134.098 314.361 134.779C314.361 135.461 313.804 135.895 312.874 135.895H298.744ZM317.485 113.584C317.485 101.933 325.728 88.5459 339.486 88.5459C343.019 88.5459 345.312 89.4136 348.349 91.0869C349.403 91.7066 349.712 91.8306 350.146 91.8306C351.386 91.8306 352.005 90.6531 352.315 89.5375C352.501 88.8558 352.873 88.5459 353.307 88.5459C353.741 88.5459 353.989 88.8558 354.051 89.5995L354.918 103.482C354.98 104.226 354.67 104.659 354.237 104.659C353.741 104.659 353.431 104.35 353.245 103.73C351.448 97.4703 347.915 91.2728 339.734 91.2728C328.083 91.2728 324.612 103.792 324.612 112.654C324.612 121.579 328.331 133.106 340.416 133.106C347.357 133.106 350.58 129.264 353.927 124.244C354.361 123.686 354.794 123.5 355.29 123.748C355.786 123.996 355.848 124.492 355.538 125.173C352.129 131.371 347.295 136.391 338.185 136.391C323.621 136.391 317.485 123.438 317.485 113.584ZM380.003 136.515C365.377 136.515 363.828 127.095 363.828 115.133V98.8338C363.828 93.7518 363.828 91.6447 359.985 91.3348C358.994 91.2728 358.498 90.839 358.498 90.1573C358.498 89.4755 359.056 89.0417 359.985 89.0417H373.93C374.859 89.0417 375.417 89.4755 375.417 90.1573C375.417 90.839 374.921 91.2728 373.93 91.3348C370.087 91.6447 370.087 93.7518 370.087 98.8338V117.24C370.087 124.306 370.583 133.292 381.305 133.292C390.663 133.292 393.948 126.537 393.948 118.356V98.8338C393.948 93.7518 393.948 91.6447 390.105 91.3348C389.114 91.2728 388.618 90.839 388.618 90.1573C388.618 89.4755 389.176 89.0417 390.105 89.0417H400.951C401.881 89.0417 402.438 89.4755 402.438 90.1573C402.438 90.839 401.943 91.2728 400.951 91.3348C397.108 91.6447 397.108 93.7518 397.108 98.8338V118.666C397.108 127.776 394.382 136.515 380.003 136.515ZM404.252 90.1573C404.252 89.4755 404.747 89.0417 405.429 89.0417H438.524C439.206 89.0417 439.701 89.4755 439.701 90.1573L439.763 92.0165L439.949 98.7099C440.011 100.197 439.64 101.189 438.958 101.189C438.276 101.251 437.78 100.445 437.656 98.7718C437.16 92.2024 435.053 92.1405 429.971 92.1405H426.315C425.633 92.1405 425.199 92.5743 425.199 93.256V126.103C425.199 131.185 425.199 133.292 429.042 133.602C430.033 133.664 430.529 134.098 430.529 134.779C430.529 135.461 429.971 135.895 429.042 135.895H414.911C413.982 135.895 413.424 135.461 413.424 134.779C413.424 134.098 413.92 133.664 414.911 133.602C418.754 133.292 418.754 131.185 418.754 126.103V93.256C418.754 92.5743 418.32 92.1405 417.638 92.1405H413.982C408.9 92.1405 406.793 92.2024 406.297 98.7718C406.173 100.445 405.677 101.251 404.995 101.189C404.314 101.189 403.942 100.197 404.004 98.7099L404.19 92.0165L404.252 90.1573Z" fill="black"/>
<path d="M23.4366 70.6474C8.1575 70.6474 6.53894 60.8066 6.53894 48.3114V31.2843C6.53894 25.9754 6.53894 23.7742 2.52494 23.4505C1.48907 23.3857 0.97113 22.9325 0.97113 22.2204C0.97113 21.5082 1.55381 21.055 2.52494 21.055H17.0919C18.063 21.055 18.6457 21.5082 18.6457 22.2204C18.6457 22.9325 18.1278 23.3857 17.0919 23.4505C13.0779 23.7742 13.0779 25.9754 13.0779 31.2843V50.5126C13.0779 57.8932 13.5958 67.2808 24.7962 67.2808C34.5722 67.2808 38.0036 60.224 38.0036 51.678V31.2843C38.0036 25.9754 38.0036 23.7742 33.9896 23.4505C32.9537 23.3857 32.4358 22.9325 32.4358 22.2204C32.4358 21.5082 33.0184 21.055 33.9896 21.055H45.3194C46.2906 21.055 46.8732 21.5082 46.8732 22.2204C46.8732 22.9325 46.3553 23.3857 45.3194 23.4505C41.3054 23.7742 41.3054 25.9754 41.3054 31.2843V52.0017C41.3054 61.5188 38.4568 70.6474 23.4366 70.6474ZM88.9722 70.8416C88.519 70.8416 88.0659 70.5827 87.7421 70.1295L60.7447 33.615C60.0973 32.7086 59.3204 32.9676 59.3204 34.0682V59.7708C59.3204 65.0796 59.3204 67.2808 63.3344 67.6045C64.3703 67.6693 64.8882 68.1225 64.8882 68.8346C64.8882 69.5468 64.3055 70 63.3344 70H52.0693C51.0982 70 50.5155 69.5468 50.5155 68.8346C50.5155 68.1225 51.0334 67.6693 52.0693 67.6045C56.0833 67.2808 56.0833 65.0796 56.0833 59.7708V28.1119C56.0833 27.5292 55.9538 27.1408 55.5654 26.6876C53.8821 24.8101 51.2924 23.7742 49.2854 23.4505C48.7674 23.3857 48.5085 22.9325 48.5085 22.2204C48.5085 21.5082 48.8322 21.055 49.2854 21.055H58.414C58.9967 21.055 59.4499 21.314 59.8383 21.7672L84.9582 55.3683C85.6057 56.2747 86.3826 55.951 86.3826 54.8504V31.2843C86.3826 25.9754 86.3826 23.7742 82.3686 23.4505C81.3327 23.3857 80.8147 22.9325 80.8147 22.2204C80.8147 21.5082 81.3974 21.055 82.3686 21.055H93.6337C94.6048 21.055 95.1875 21.5082 95.1875 22.2204C95.1875 22.9325 94.6695 23.3857 93.6337 23.4505C89.6197 23.7742 89.6197 25.9754 89.6197 31.2843L89.6844 69.6763C89.6844 70.3885 89.4254 70.8416 88.9722 70.8416ZM99.3294 70C98.3583 70 97.7756 69.5468 97.7756 68.8346C97.7756 68.1225 98.2936 67.6693 99.3294 67.6045C103.343 67.2808 103.343 65.0796 103.343 59.7708V31.2843C103.343 25.9754 103.343 23.7742 99.3294 23.4505C98.2936 23.3857 97.7756 22.9325 97.7756 22.2204C97.7756 21.5082 98.3583 21.055 99.3294 21.055H114.091C115.062 21.055 115.644 21.5082 115.644 22.2204C115.644 22.9325 115.126 23.3857 114.091 23.4505C110.077 23.7742 110.077 25.9754 110.077 31.2843V59.7708C110.077 65.0796 110.077 67.2808 114.091 67.6045C115.126 67.6693 115.644 68.1225 115.644 68.8346C115.644 69.5468 115.062 70 114.091 70H99.3294ZM163.256 21.055C163.839 21.055 164.163 21.5082 164.163 22.2204C164.163 22.9325 163.904 23.3857 163.256 23.4505C160.861 23.7742 159.113 25.6517 157.3 30.6368L142.539 70.259C142.344 70.8416 141.956 71.1654 141.438 71.1654C140.92 71.1654 140.532 70.8416 140.273 70.259L124.67 30.5721C122.728 25.6517 120.915 23.7742 118.519 23.4505C117.872 23.3857 117.613 22.9325 117.613 22.2204C117.613 21.5082 117.937 21.055 118.519 21.055H132.892C133.993 21.055 134.705 21.5082 134.705 22.2204C134.705 22.9325 134.122 23.3857 132.892 23.4505C128.036 23.7742 129.849 25.6517 131.792 30.5721L142.409 57.5048C142.798 58.5407 143.575 58.4759 143.963 57.5048L153.933 30.6368C155.811 25.6517 157.494 23.7742 152.638 23.4505C151.408 23.3857 150.826 22.9325 150.826 22.2204C150.826 21.5082 151.538 21.055 152.638 21.055H163.256ZM167.675 70C166.704 70 166.121 69.5468 166.121 68.8346C166.121 68.1225 166.639 67.6693 167.675 67.6045C171.689 67.2808 171.689 65.0796 171.689 59.7708V31.2843C171.689 25.9754 171.689 23.7742 167.675 23.4505C166.639 23.3857 166.121 22.9325 166.121 22.2204C166.121 21.5082 166.704 21.055 167.675 21.055H199.01C199.723 21.055 200.111 21.3787 200.176 22.1556L200.305 23.8389L200.694 29.8599C200.823 31.2195 200.435 32.1259 199.723 32.1259C199.01 32.1907 198.492 31.4785 198.363 30.0542C197.586 24.1626 195.385 23.9684 190.076 23.9684H179.588C178.876 23.9684 178.422 24.4216 178.422 25.1338V41.7725C178.422 42.4846 178.876 42.9378 179.588 42.9378H186.191C191.5 42.9378 193.702 42.9378 194.025 38.2764C194.09 37.111 194.543 36.5284 195.255 36.5284C195.968 36.5284 196.421 37.1758 196.421 38.2764V50.5126C196.421 51.5485 195.968 52.2607 195.255 52.2607C194.543 52.2607 194.09 51.678 194.025 50.5126C193.702 45.8512 191.5 45.8512 186.191 45.8512H179.588C178.876 45.8512 178.422 46.3044 178.422 47.0166V64.4969C178.422 66.1802 179.588 67.0866 181.789 67.0866H190.011C195.32 67.0866 197.521 66.6982 198.946 59.6413C199.334 57.8932 199.917 57.1163 200.629 57.1811C201.276 57.3106 201.6 58.4112 201.341 60.0297L200.241 67.2161L199.787 70H167.675ZM205.547 70C204.576 70 203.993 69.5468 203.993 68.8346C203.993 68.1225 204.511 67.6693 205.547 67.6045C209.561 67.2808 209.561 65.0796 209.561 59.7708V31.2843C209.561 25.9754 209.561 23.7742 205.547 23.4505C204.511 23.3857 203.993 22.9325 203.993 22.2204C203.993 21.5082 204.576 21.055 205.547 21.055H223.998C232.997 21.055 239.99 26.1049 239.99 33.6797C239.99 40.1539 234.81 44.8801 229.113 46.4986C228.271 46.7576 228.077 47.2755 228.53 47.9877L237.27 61.4541C240.184 65.8565 242.838 67.2808 245.298 67.6045C245.946 67.6693 246.27 68.1225 246.27 68.8346C246.27 69.5468 245.881 70 245.298 70H231.573C230.602 70 230.019 69.5468 230.019 68.8346C230.019 68.1225 230.537 67.6693 231.573 67.6045C235.587 67.2808 232.868 65.8565 229.955 61.4541L221.15 47.9877C220.826 47.4698 220.308 47.2108 219.725 47.2108L217.459 47.2755C216.747 47.2755 216.294 47.7935 216.294 48.5056V59.7708C216.294 65.0796 216.294 67.2808 220.308 67.6045C221.344 67.6693 221.862 68.1225 221.862 68.8346C221.862 69.5468 221.279 70 220.308 70H205.547ZM216.294 43.1968C216.294 43.909 216.682 44.3622 217.395 44.4269C218.948 44.5564 220.373 44.6211 221.279 44.6211C227.171 44.6211 232.803 40.4129 232.803 34.3919C232.803 28.2414 226.976 23.8389 221.085 23.8389C220.308 23.8389 218.884 23.9037 217.33 24.2274C216.618 24.3569 216.294 24.8748 216.294 25.5222V43.1968ZM274.537 46.9518C277.774 49.671 279.328 53.5555 279.328 57.2458C279.328 63.979 274.149 70.5179 264.632 70.5179C261.848 70.5179 260.423 69.9353 257.316 68.8994C255.179 68.1225 253.82 67.734 253.366 67.734C252.266 67.734 251.877 68.5757 251.683 69.4821C251.489 70.1295 251.23 70.5179 250.712 70.5179C250.194 70.5179 249.87 70.0647 249.87 69.3526V54.7209C249.87 54.0087 250.194 53.5555 250.712 53.5555C251.23 53.5555 251.554 53.8792 251.683 54.5914C252.978 61.2598 255.891 67.4751 263.919 67.4751C270.264 67.4751 273.113 64.0437 273.113 60.0297C273.113 57.3753 271.883 54.9151 269.487 53.0376C268.646 52.3254 266.315 50.7716 262.495 48.4409C254.532 43.5205 249.482 39.8302 249.482 32.9028C249.482 26.1696 254.273 20.5371 263.272 20.5371C265.149 20.5371 267.545 20.7961 270.264 22.0262C271.429 22.6088 272.271 22.9325 272.724 22.9325C273.825 22.9325 274.278 22.0909 274.602 21.1845C274.796 20.4723 275.12 20.1486 275.638 20.1486C276.091 20.1486 276.415 20.6018 276.415 21.314V36.0752C276.415 36.7873 276.156 37.2405 275.638 37.2405C275.12 37.2405 274.796 36.8521 274.667 36.1399C273.825 30.3131 270.653 23.2563 263.337 23.2563C258.028 23.2563 255.05 26.6228 255.05 30.0542C255.05 34.9098 261.006 38.3411 266.056 41.3193C270.199 43.7147 273.048 45.657 274.537 46.9518ZM284.767 70C283.796 70 283.213 69.5468 283.213 68.8346C283.213 68.1225 283.731 67.6693 284.767 67.6045C288.781 67.2808 288.781 65.0796 288.781 59.7708V31.2843C288.781 25.9754 288.781 23.7742 284.767 23.4505C283.731 23.3857 283.213 22.9325 283.213 22.2204C283.213 21.5082 283.796 21.055 284.767 21.055H299.528C300.5 21.055 301.082 21.5082 301.082 22.2204C301.082 22.9325 300.564 23.3857 299.528 23.4505C295.514 23.7742 295.514 25.9754 295.514 31.2843V59.7708C295.514 65.0796 295.514 67.2808 299.528 67.6045C300.564 67.6693 301.082 68.1225 301.082 68.8346C301.082 69.5468 300.5 70 299.528 70H284.767ZM303.31 22.2204C303.31 21.5082 303.828 21.055 304.54 21.055H339.112C339.824 21.055 340.342 21.5082 340.342 22.2204L340.407 24.1626L340.601 31.1548C340.666 32.7086 340.278 33.7445 339.565 33.7445C338.853 33.8092 338.335 32.9676 338.206 31.2195C337.688 24.3569 335.487 24.2921 330.178 24.2921H326.358C325.646 24.2921 325.193 24.7453 325.193 25.4575V59.7708C325.193 65.0796 325.193 67.2808 329.207 67.6045C330.243 67.6693 330.76 68.1225 330.76 68.8346C330.76 69.5468 330.178 70 329.207 70H314.445C313.474 70 312.892 69.5468 312.892 68.8346C312.892 68.1225 313.41 67.6693 314.445 67.6045C318.459 67.2808 318.459 65.0796 318.459 59.7708V25.4575C318.459 24.7453 318.006 24.2921 317.294 24.2921H313.474C308.165 24.2921 305.964 24.3569 305.446 31.2195C305.317 32.9676 304.799 33.8092 304.087 33.7445C303.375 33.7445 302.986 32.7086 303.051 31.1548L303.245 24.1626L303.31 22.2204ZM357.474 70C356.502 70 355.92 69.5468 355.92 68.8346C355.92 68.1225 356.438 67.6693 357.474 67.6045C361.488 67.2808 361.488 65.0796 361.488 59.7708V50.7069L350.093 29.9894C347.568 25.3927 345.173 23.7742 342.777 23.4505C342.13 23.3857 341.871 22.9325 341.871 22.2204C341.871 21.5082 342.194 21.055 342.777 21.055H357.15C358.251 21.055 358.963 21.5082 358.963 22.2204C358.963 22.9325 358.38 23.3857 357.15 23.4505C352.294 23.7742 354.754 25.328 357.474 29.9247L366.732 45.8512L375.213 30.0542C377.738 25.3927 380.069 23.7742 375.213 23.4505C373.983 23.3857 373.4 22.9325 373.4 22.2204C373.4 21.5082 374.112 21.055 375.213 21.055H385.831C386.413 21.055 386.737 21.5082 386.737 22.2204C386.737 22.9325 386.478 23.3857 385.831 23.4505C383.435 23.7742 381.169 25.4575 378.774 30.1837L368.221 50.6421V59.7708C368.221 65.0796 368.221 67.2808 372.235 67.6045C373.271 67.6693 373.789 68.1225 373.789 68.8346C373.789 69.5468 373.206 70 372.235 70H357.474Z" fill="black"/>
<path d="M1.72126 189.964C1.72126 182.944 6.68701 174.88 14.9757 174.88C17.1039 174.88 18.4853 175.402 20.3148 176.41C20.9496 176.784 21.1362 176.859 21.3976 176.859C22.1443 176.859 22.5177 176.149 22.7044 175.477C22.8164 175.066 23.0404 174.88 23.3018 174.88C23.5631 174.88 23.7125 175.066 23.7498 175.514L24.2725 183.878C24.3098 184.326 24.1232 184.587 23.8618 184.587C23.5631 184.587 23.3764 184.401 23.2644 184.027C22.1817 180.256 20.0535 176.523 15.1251 176.523C8.1058 176.523 6.01496 184.064 6.01496 189.404C6.01496 194.78 8.25515 201.725 15.5358 201.725C19.7175 201.725 21.6589 199.41 23.6751 196.386C23.9365 196.049 24.1978 195.937 24.4965 196.087C24.7952 196.236 24.8326 196.535 24.6459 196.946C22.5924 200.679 19.6801 203.703 14.1917 203.703C5.41757 203.703 1.72126 195.9 1.72126 189.964ZM31.8054 191.532C33.8216 198.327 38.1526 202.733 43.1184 201.239C48.0841 199.746 49.3536 193.66 47.3374 186.865C45.2839 180.032 40.9902 175.962 36.0245 177.456C31.0587 178.949 29.7519 184.699 31.8054 191.532ZM26.989 189.18C26.989 180.891 32.7015 174.88 39.6088 174.88C46.516 174.88 52.2285 180.891 52.2285 189.18C52.2285 197.356 46.7027 203.703 39.6088 203.703C32.5148 203.703 26.989 197.356 26.989 189.18ZM77.0695 203.89C76.8082 203.89 76.5468 203.741 76.3601 203.479L60.7908 182.422C60.4174 181.899 59.9694 182.048 59.9694 182.683V197.506C59.9694 200.567 59.9694 201.837 62.2843 202.023C62.8816 202.061 63.1803 202.322 63.1803 202.733C63.1803 203.143 62.8443 203.405 62.2843 203.405H55.7877C55.2277 203.405 54.8916 203.143 54.8916 202.733C54.8916 202.322 55.1903 202.061 55.7877 202.023C58.1026 201.837 58.1026 200.567 58.1026 197.506V179.248C58.1026 178.912 58.0279 178.688 57.8039 178.427C56.8331 177.344 55.3397 176.747 54.1822 176.56C53.8836 176.523 53.7342 176.261 53.7342 175.85C53.7342 175.44 53.9209 175.178 54.1822 175.178H59.4467C59.7827 175.178 60.0441 175.328 60.2681 175.589L74.7547 194.967C75.128 195.489 75.5761 195.303 75.5761 194.668V181.078C75.5761 178.016 75.5761 176.747 73.2612 176.56C72.6638 176.523 72.3651 176.261 72.3651 175.85C72.3651 175.44 72.7011 175.178 73.2612 175.178H79.7577C80.3178 175.178 80.6538 175.44 80.6538 175.85C80.6538 176.261 80.3551 176.523 79.7577 176.56C77.4429 176.747 77.4429 178.016 77.4429 181.078L77.4802 203.218C77.4802 203.629 77.3309 203.89 77.0695 203.89ZM82.5198 189.964C82.5198 182.944 87.4855 174.88 95.7742 174.88C97.9024 174.88 99.2839 175.402 101.113 176.41C101.748 176.784 101.935 176.859 102.196 176.859C102.943 176.859 103.316 176.149 103.503 175.477C103.615 175.066 103.839 174.88 104.1 174.88C104.362 174.88 104.511 175.066 104.548 175.514L105.071 183.878C105.108 184.326 104.922 184.587 104.66 184.587C104.362 184.587 104.175 184.401 104.063 184.027C102.98 180.256 100.852 176.523 95.9236 176.523C88.9043 176.523 86.8135 184.064 86.8135 189.404C86.8135 194.78 89.0537 201.725 96.3343 201.725C100.516 201.725 102.457 199.41 104.474 196.386C104.735 196.049 104.996 195.937 105.295 196.087C105.594 196.236 105.631 196.535 105.444 196.946C103.391 200.679 100.479 203.703 94.9902 203.703C86.2161 203.703 82.5198 195.9 82.5198 189.964ZM108.31 203.405C107.75 203.405 107.414 203.143 107.414 202.733C107.414 202.322 107.713 202.061 108.31 202.023C110.625 201.837 110.625 200.567 110.625 197.506V181.078C110.625 178.016 110.625 176.747 108.31 176.56C107.713 176.523 107.414 176.261 107.414 175.85C107.414 175.44 107.75 175.178 108.31 175.178H118.951C124.141 175.178 128.173 178.091 128.173 182.459C128.173 186.193 125.186 188.918 121.901 189.852C121.415 190.001 121.303 190.3 121.565 190.71L126.605 198.476C128.285 201.015 129.816 201.837 131.235 202.023C131.608 202.061 131.795 202.322 131.795 202.733C131.795 203.143 131.571 203.405 131.235 203.405H123.32C122.759 203.405 122.423 203.143 122.423 202.733C122.423 202.322 122.722 202.061 123.32 202.023C125.634 201.837 124.066 201.015 122.386 198.476L117.308 190.71C117.122 190.412 116.823 190.262 116.487 190.262L115.18 190.3C114.769 190.3 114.508 190.598 114.508 191.009V197.506C114.508 200.567 114.508 201.837 116.823 202.023C117.42 202.061 117.719 202.322 117.719 202.733C117.719 203.143 117.383 203.405 116.823 203.405H108.31ZM114.508 187.947C114.508 188.358 114.732 188.62 115.143 188.657C116.039 188.732 116.86 188.769 117.383 188.769C120.781 188.769 124.029 186.342 124.029 182.87C124.029 179.323 120.669 176.784 117.271 176.784C116.823 176.784 116.002 176.821 115.105 177.008C114.695 177.083 114.508 177.381 114.508 177.755V187.947ZM133.797 203.405C133.237 203.405 132.901 203.143 132.901 202.733C132.901 202.322 133.199 202.061 133.797 202.023C136.112 201.837 136.112 200.567 136.112 197.506V181.078C136.112 178.016 136.112 176.747 133.797 176.56C133.199 176.523 132.901 176.261 132.901 175.85C132.901 175.44 133.237 175.178 133.797 175.178H151.868C152.278 175.178 152.502 175.365 152.54 175.813L152.614 176.784L152.838 180.256C152.913 181.04 152.689 181.563 152.278 181.563C151.868 181.6 151.569 181.19 151.494 180.368C151.046 176.971 149.777 176.859 146.715 176.859H140.667C140.256 176.859 139.995 177.12 139.995 177.531V187.126C139.995 187.537 140.256 187.798 140.667 187.798H144.475C147.537 187.798 148.806 187.798 148.993 185.11C149.03 184.438 149.291 184.102 149.702 184.102C150.113 184.102 150.374 184.475 150.374 185.11V192.166C150.374 192.764 150.113 193.175 149.702 193.175C149.291 193.175 149.03 192.839 148.993 192.166C148.806 189.478 147.537 189.478 144.475 189.478H140.667C140.256 189.478 139.995 189.74 139.995 190.15V200.231C139.995 201.202 140.667 201.725 141.936 201.725H146.678C149.739 201.725 151.009 201.501 151.83 197.431C152.054 196.423 152.39 195.975 152.801 196.012C153.174 196.087 153.361 196.722 153.212 197.655L152.577 201.799L152.316 203.405H133.797ZM154.517 175.85C154.517 175.44 154.816 175.178 155.226 175.178H175.164C175.575 175.178 175.874 175.44 175.874 175.85L175.911 176.971L176.023 181.003C176.06 181.899 175.836 182.496 175.426 182.496C175.015 182.534 174.716 182.048 174.641 181.04C174.343 177.083 173.073 177.045 170.012 177.045H167.809C167.398 177.045 167.137 177.307 167.137 177.717V197.506C167.137 200.567 167.137 201.837 169.452 202.023C170.049 202.061 170.348 202.322 170.348 202.733C170.348 203.143 170.012 203.405 169.452 203.405H160.939C160.379 203.405 160.043 203.143 160.043 202.733C160.043 202.322 160.342 202.061 160.939 202.023C163.254 201.837 163.254 200.567 163.254 197.506V177.717C163.254 177.307 162.992 177.045 162.582 177.045H160.379C157.317 177.045 156.048 177.083 155.749 181.04C155.674 182.048 155.376 182.534 154.965 182.496C154.554 182.496 154.33 181.899 154.368 181.003L154.48 176.971L154.517 175.85ZM178.024 203.405C177.464 203.405 177.128 203.143 177.128 202.733C177.128 202.322 177.427 202.061 178.024 202.023C180.339 201.837 180.339 200.567 180.339 197.506V181.078C180.339 178.016 180.339 176.747 178.024 176.56C177.427 176.523 177.128 176.261 177.128 175.85C177.128 175.44 177.464 175.178 178.024 175.178H196.095C196.506 175.178 196.73 175.365 196.767 175.813L196.842 176.784L197.066 180.256C197.141 181.04 196.917 181.563 196.506 181.563C196.095 181.6 195.797 181.19 195.722 180.368C195.274 176.971 194.004 176.859 190.943 176.859H184.894C184.484 176.859 184.222 177.12 184.222 177.531V187.126C184.222 187.537 184.484 187.798 184.894 187.798H188.703C191.764 187.798 193.034 187.798 193.22 185.11C193.258 184.438 193.519 184.102 193.93 184.102C194.341 184.102 194.602 184.475 194.602 185.11V192.166C194.602 192.764 194.341 193.175 193.93 193.175C193.519 193.175 193.258 192.839 193.22 192.166C193.034 189.478 191.764 189.478 188.703 189.478H184.894C184.484 189.478 184.222 189.74 184.222 190.15V200.231C184.222 201.202 184.894 201.725 186.164 201.725H190.906C193.967 201.725 195.237 201.501 196.058 197.431C196.282 196.423 196.618 195.975 197.029 196.012C197.402 196.087 197.589 196.722 197.439 197.655L196.805 201.799L196.543 203.405H178.024ZM206.817 189.964C206.817 182.944 211.783 174.88 220.071 174.88C222.199 174.88 223.581 175.402 225.41 176.41C226.045 176.784 226.232 176.859 226.493 176.859C227.24 176.859 227.613 176.149 227.8 175.477C227.912 175.066 228.136 174.88 228.397 174.88C228.659 174.88 228.808 175.066 228.845 175.514L229.368 183.878C229.405 184.326 229.219 184.587 228.957 184.587C228.659 184.587 228.472 184.401 228.36 184.027C227.277 180.256 225.149 176.523 220.221 176.523C213.201 176.523 211.11 184.064 211.11 189.404C211.11 194.78 213.351 201.725 220.631 201.725C224.813 201.725 226.754 199.41 228.771 196.386C229.032 196.049 229.293 195.937 229.592 196.087C229.891 196.236 229.928 196.535 229.741 196.946C227.688 200.679 224.776 203.703 219.287 203.703C210.513 203.703 206.817 195.9 206.817 189.964ZM231.131 203.405C230.795 203.405 230.609 203.143 230.609 202.733C230.609 202.322 230.758 202.061 231.131 202.023C232.513 201.837 233.521 200.754 234.604 197.879L243.228 175.029C243.34 174.693 243.564 174.506 243.863 174.506C244.162 174.506 244.386 174.693 244.535 175.029L253.421 197.916C254.504 200.754 255.549 201.837 256.931 202.023C257.304 202.061 257.454 202.322 257.454 202.733C257.454 203.143 257.267 203.405 256.931 203.405H248.642C248.007 203.405 247.597 203.143 247.597 202.733C247.597 202.322 247.933 202.061 248.642 202.023C251.442 201.837 250.397 200.754 249.314 197.916L247.97 194.481C247.821 194.145 247.597 193.959 247.223 193.959H238.599C238.225 193.959 238.001 194.145 237.852 194.481L236.545 197.879C235.462 200.754 234.454 201.837 237.254 202.023C237.964 202.061 238.3 202.322 238.3 202.733C238.3 203.143 237.889 203.405 237.254 203.405H231.131ZM238.972 191.494C238.785 191.942 239.009 192.279 239.495 192.279H246.29C246.775 192.279 246.999 191.942 246.813 191.494L243.303 182.384C243.079 181.787 242.631 181.787 242.407 182.384L238.972 191.494ZM281.545 203.89C281.284 203.89 281.022 203.741 280.836 203.479L265.266 182.422C264.893 181.899 264.445 182.048 264.445 182.683V197.506C264.445 200.567 264.445 201.837 266.76 202.023C267.357 202.061 267.656 202.322 267.656 202.733C267.656 203.143 267.32 203.405 266.76 203.405H260.263C259.703 203.405 259.367 203.143 259.367 202.733C259.367 202.322 259.666 202.061 260.263 202.023C262.578 201.837 262.578 200.567 262.578 197.506V179.248C262.578 178.912 262.504 178.688 262.28 178.427C261.309 177.344 259.815 176.747 258.658 176.56C258.359 176.523 258.21 176.261 258.21 175.85C258.21 175.44 258.397 175.178 258.658 175.178H263.922C264.258 175.178 264.52 175.328 264.744 175.589L279.23 194.967C279.604 195.489 280.052 195.303 280.052 194.668V181.078C280.052 178.016 280.052 176.747 277.737 176.56C277.139 176.523 276.841 176.261 276.841 175.85C276.841 175.44 277.177 175.178 277.737 175.178H284.233C284.793 175.178 285.129 175.44 285.129 175.85C285.129 176.261 284.831 176.523 284.233 176.56C281.919 176.747 281.919 178.016 281.919 181.078L281.956 203.218C281.956 203.629 281.807 203.89 281.545 203.89ZM291.812 191.532C293.828 198.327 298.159 202.733 303.125 201.239C308.091 199.746 309.36 193.66 307.344 186.865C305.29 180.032 300.997 175.962 296.031 177.456C291.065 178.949 289.758 184.699 291.812 191.532ZM286.995 189.18C286.995 180.891 292.708 174.88 299.615 174.88C306.522 174.88 312.235 180.891 312.235 189.18C312.235 197.356 306.709 203.703 299.615 203.703C292.521 203.703 286.995 197.356 286.995 189.18ZM315.01 203.405C314.45 203.405 314.114 203.143 314.114 202.733C314.114 202.322 314.413 202.061 315.01 202.023C317.325 201.837 317.325 200.567 317.325 197.506V181.078C317.325 178.016 317.325 176.747 315.01 176.56C314.413 176.523 314.114 176.261 314.114 175.85C314.114 175.44 314.45 175.178 315.01 175.178H333.081C333.492 175.178 333.716 175.365 333.753 175.813L333.828 176.784L334.052 180.256C334.126 181.04 333.902 181.563 333.492 181.563C333.081 181.6 332.782 181.19 332.708 180.368C332.259 176.971 330.99 176.859 327.928 176.859H321.88C321.469 176.859 321.208 177.12 321.208 177.531V187.126C321.208 187.537 321.469 187.798 321.88 187.798H325.688C328.75 187.798 330.019 187.798 330.206 185.11C330.243 184.438 330.505 184.102 330.915 184.102C331.326 184.102 331.587 184.475 331.587 185.11V192.166C331.587 192.764 331.326 193.175 330.915 193.175C330.505 193.175 330.243 192.839 330.206 192.166C330.019 189.478 328.75 189.478 325.688 189.478H321.88C321.469 189.478 321.208 189.74 321.208 190.15V200.231C321.208 201.202 321.88 201.725 323.149 201.725H327.891C330.953 201.725 332.222 201.501 333.044 197.431C333.268 196.423 333.604 195.975 334.014 196.012C334.388 196.087 334.574 196.722 334.425 197.655L333.79 201.799L333.529 203.405H315.01ZM343.802 189.964C343.802 182.944 348.768 174.88 357.057 174.88C359.185 174.88 360.566 175.402 362.396 176.41C363.031 176.784 363.217 176.859 363.479 176.859C364.225 176.859 364.599 176.149 364.785 175.477C364.897 175.066 365.121 174.88 365.383 174.88C365.644 174.88 365.794 175.066 365.831 175.514L366.354 183.878C366.391 184.326 366.204 184.587 365.943 184.587C365.644 184.587 365.457 184.401 365.345 184.027C364.263 180.256 362.135 176.523 357.206 176.523C350.187 176.523 348.096 184.064 348.096 189.404C348.096 194.78 350.336 201.725 357.617 201.725C361.799 201.725 363.74 199.41 365.756 196.386C366.018 196.049 366.279 195.937 366.578 196.087C366.876 196.236 366.914 196.535 366.727 196.946C364.673 200.679 361.761 203.703 356.273 203.703C347.499 203.703 343.802 195.9 343.802 189.964ZM369.593 203.405C369.033 203.405 368.697 203.143 368.697 202.733C368.697 202.322 368.995 202.061 369.593 202.023C371.908 201.837 371.908 200.567 371.908 197.506V181.078C371.908 178.016 371.908 176.747 369.593 176.56C368.995 176.523 368.697 176.261 368.697 175.85C368.697 175.44 369.033 175.178 369.593 175.178H378.106C378.666 175.178 379.002 175.44 379.002 175.85C379.002 176.261 378.703 176.523 378.106 176.56C375.791 176.747 375.791 178.016 375.791 181.078V199.932C375.791 200.903 376.463 201.426 377.732 201.426H381.279C384.975 201.426 386.506 201.165 387.29 197.132C387.477 196.087 387.85 195.639 388.336 195.713C388.858 195.751 389.082 196.423 388.933 197.356L388.373 201.501L388.186 202.77C388.149 203.181 387.888 203.405 387.477 203.405H369.593ZM401.738 203.778C392.927 203.778 391.994 198.103 391.994 190.897V181.078C391.994 178.016 391.994 176.747 389.679 176.56C389.081 176.523 388.783 176.261 388.783 175.85C388.783 175.44 389.119 175.178 389.679 175.178H398.079C398.639 175.178 398.975 175.44 398.975 175.85C398.975 176.261 398.677 176.523 398.079 176.56C395.765 176.747 395.765 178.016 395.765 181.078V192.166C395.765 196.423 396.063 201.837 402.522 201.837C408.16 201.837 410.139 197.767 410.139 192.839V181.078C410.139 178.016 410.139 176.747 407.824 176.56C407.227 176.523 406.928 176.261 406.928 175.85C406.928 175.44 407.264 175.178 407.824 175.178H414.358C414.918 175.178 415.254 175.44 415.254 175.85C415.254 176.261 414.955 176.523 414.358 176.56C412.043 176.747 412.043 178.016 412.043 181.078V193.025C412.043 198.514 410.4 203.778 401.738 203.778ZM417.467 203.405C416.907 203.405 416.571 203.143 416.571 202.733C416.571 202.322 416.869 202.061 417.467 202.023C419.781 201.837 419.781 200.567 419.781 197.506V181.078C419.781 178.016 419.781 176.747 417.467 176.56C416.869 176.523 416.571 176.261 416.571 175.85C416.571 175.44 416.907 175.178 417.467 175.178H428.108C434.268 175.178 438.151 178.091 438.151 182.683C438.151 185.782 436.546 187.91 433.447 188.918C436.919 190.001 439.271 192.316 439.271 195.863C439.271 200.493 435.313 203.405 429.153 203.405H417.467ZM423.664 200.791C423.664 201.202 423.851 201.463 424.262 201.501C425.531 201.725 427.473 201.799 428.369 201.799C432.327 201.799 434.753 199.298 434.753 195.825C434.753 192.279 432.215 189.665 426.987 189.665C426.465 189.665 425.307 189.702 424.299 189.777C423.889 189.814 423.664 190.076 423.664 190.486V200.791ZM423.664 187.201C423.664 187.611 423.851 187.835 424.262 187.91C425.307 188.059 426.539 188.097 427.547 188.097C431.356 188.097 433.969 186.342 433.969 182.87C433.969 179.323 431.244 176.672 427.323 176.672C426.427 176.672 425.27 176.747 424.262 176.933C423.851 177.008 423.664 177.232 423.664 177.643V187.201Z" fill="black"/>
<rect y="218.058" width="440.296" height="2.11342" fill="#5293C2"/>
<rect y="156.769" width="440.296" height="2.11342" fill="#5293C2"/>
</svg>
