<svg version="1.1" viewBox="0.0 0.0 192.0 192.0" fill="none" stroke="none" stroke-linecap="square" stroke-miterlimit="10" xmlns:xlink="http://www.w3.org/1999/xlink" xmlns="http://www.w3.org/2000/svg"><clipPath id="p.0"><path d="m0 0l192.0 0l0 192.0l-192.0 0l0 -192.0z" clip-rule="nonzero"/></clipPath><g clip-path="url(#p.0)"><path fill="#000000" fill-opacity="0.0" d="m0 0l192.0 0l0 192.0l-192.0 0z" fill-rule="evenodd"/><path fill="#c7c7c7" d="m16.771654 96.0l0 0c0 -43.095604 35.47174 -78.031494 79.22835 -78.031494l0 0c21.012665 0 41.164703 8.221151 56.022903 22.854895c14.8582 14.633747 23.205444 34.481365 23.205444 55.1766l0 0c0 43.09561 -35.47174 78.031494 -79.22835 78.031494l0 0c-43.756607 0 -79.22835 -34.935883 -79.22835 -78.031494z" fill-rule="evenodd"/><path fill="#181c54" d="m90.17226 82.91599l65.60629 -57.511806l21.291351 24.283463l-65.60631 57.511814z" fill-rule="evenodd"/><path stroke="#181c54" stroke-width="1.0" stroke-linejoin="round" stroke-linecap="butt" d="m90.17226 82.91599l65.60629 -57.511806l21.291351 24.283463l-65.60631 57.511814z" fill-rule="evenodd"/><path fill="#181c54" d="m43.417595 70.283485l99.043724 -10.072544l-32.33506 93.096176z" fill-rule="evenodd"/><path stroke="#181c54" stroke-width="1.0" stroke-linejoin="round" stroke-linecap="butt" d="m43.417595 70.283485l99.043724 -10.072544l-32.33506 93.096176z" fill-rule="evenodd"/><path fill="#181c54" d="m43.417324 69.72966l0 0c0 -4.3660965 18.529064 -7.905514 41.385822 -7.905514l0 0c22.856766 0 41.385834 3.5394173 41.385834 7.905514l0 0c0 4.366089 -18.529068 7.90551 -41.385834 7.90551l0 0c-22.856758 0 -41.385822 -3.539421 -41.385822 -7.90551z" fill-rule="evenodd"/><path stroke="#181c54" stroke-width="1.0" stroke-linejoin="round" stroke-linecap="butt" d="m43.417324 69.72966l0 0c0 -4.3660965 18.529064 -7.905514 41.385822 -7.905514l0 0c22.856766 0 41.385834 3.5394173 41.385834 7.905514l0 0c0 4.366089 -18.529068 7.90551 -41.385834 7.90551l0 0c-22.856758 0 -41.385822 -3.539421 -41.385822 -7.90551z" fill-rule="evenodd"/><path fill="#181c54" d="m110.72064 153.62799l0 0c-4.2269363 -1.095871 -3.0212784 -19.928116 2.6929169 -42.062996l0 0c5.7141876 -22.13488 13.773064 -39.19036 18.0 -38.09449l0 0c4.2269287 1.095871 3.0212708 19.928116 -2.6929169 42.062996l0 0c-5.7141876 22.13488 -13.773064 39.19036 -18.0 38.09449z" fill-rule="evenodd"/><path stroke="#181c54" stroke-width="1.0" stroke-linejoin="round" stroke-linecap="butt" d="m110.72064 153.62799l0 0c-4.2269363 -1.095871 -3.0212784 -19.928116 2.6929169 -42.062996l0 0c5.7141876 -22.13488 13.773064 -39.19036 18.0 -38.09449l0 0c4.2269287 1.095871 3.0212708 19.928116 -2.6929169 42.062996l0 0c-5.7141876 22.13488 -13.773064 39.19036 -18.0 38.09449z" fill-rule="evenodd"/></g></svg>