<svg width="423" height="39" viewBox="0 0 423 39" fill="none" xmlns="http://www.w3.org/2000/svg">
<path d="M394.046 37.8331C393.245 37.8331 392.593 37.6412 392.088 37.2575C391.584 36.8442 391.332 36.3424 391.332 35.752C391.332 35.1616 391.421 34.7336 391.599 34.4679C391.806 34.1727 392.148 33.8332 392.622 33.4495C393.364 32.8296 393.927 32.2687 394.313 31.7669C395.233 30.5566 395.693 27.6932 395.693 23.1768C395.693 22.1731 395.559 21.3909 395.292 20.83C395.055 20.2691 394.743 19.8854 394.358 19.6787C394.002 19.4426 393.527 19.2212 392.934 19.0146C392.429 18.8374 392.029 18.6603 391.732 18.4832C391.436 18.3061 391.183 18.0552 390.976 17.7305C390.798 17.4057 390.709 17.1106 390.709 16.8449C390.709 16.1955 391.065 15.6051 391.777 15.0737C392.251 14.7195 392.889 14.3653 393.69 14.011C393.868 13.9225 394.15 13.7749 394.536 13.5682C394.951 13.3616 395.322 13.155 395.648 12.9483C396.212 12.5941 396.746 12.2251 397.25 11.8414C397.754 11.4281 398.288 10.9705 398.852 10.4687C399.475 9.93737 400.098 9.67169 400.721 9.67169C401.374 9.67169 401.908 9.95212 402.323 10.513C402.501 10.7787 402.59 11.1329 402.59 11.5757C402.59 11.9594 402.545 12.4908 402.456 13.1697C402.427 13.4059 402.367 13.9815 402.278 14.8966C402.219 15.8117 402.189 16.8744 402.189 18.0847C403.228 16.1659 404.592 14.7195 406.283 13.7454C407.974 12.7417 409.932 12.2399 412.157 12.2399C414.619 12.2399 416.562 12.9483 417.986 14.3653C419.41 15.7527 420.122 17.7747 420.122 20.4315C420.122 21.258 420.063 22.0255 419.944 22.734C419.618 25.0955 419.455 26.8372 419.455 27.9589C419.455 29.0806 419.588 29.981 419.855 30.6599C420.152 31.3389 420.627 32.003 421.279 32.6525C421.962 33.3314 422.392 33.8775 422.57 34.2908C422.777 34.7041 422.851 35.2354 422.792 35.8848C422.733 36.4752 422.466 36.9475 421.991 37.3018C421.517 37.656 420.879 37.8331 420.078 37.8331C419.484 37.8331 418.594 37.7741 417.408 37.656C416.162 37.5379 415.198 37.4789 414.515 37.4789C413.922 37.4789 413.24 37.5379 412.468 37.656C411.757 37.7741 411.104 37.8331 410.511 37.8331C408.998 37.8331 408.241 37.1542 408.241 35.7963C408.241 35.4125 408.33 35.0583 408.508 34.7336C408.716 34.4089 409.027 33.9956 409.443 33.4938C410.155 32.6672 410.778 31.8112 411.312 30.9256C411.875 30.04 412.409 28.8445 412.913 27.339C413.269 26.2763 413.447 25.2579 413.447 24.2837C413.447 23.0735 413.21 21.9665 412.735 20.9628C412.261 19.9297 411.608 19.1179 410.778 18.5275C409.977 17.9371 409.087 17.6419 408.108 17.6419C407.396 17.6419 406.728 17.7895 406.105 18.0847C404.741 18.6456 403.702 19.6049 402.99 20.9628C402.308 22.3207 401.967 23.8557 401.967 25.5678C401.967 27.7523 402.501 29.8186 403.569 31.7669C404.162 32.8001 404.577 33.5971 404.815 34.158C405.082 34.7188 405.215 35.2354 405.215 35.7077C405.215 36.3276 404.993 36.8442 404.548 37.2575C404.103 37.6412 403.569 37.8331 402.946 37.8331C402.679 37.8331 402.382 37.8183 402.056 37.7888C401.73 37.7593 401.477 37.7298 401.299 37.7003C400.617 37.5527 399.831 37.4789 398.941 37.4789C398.377 37.4789 397.65 37.5379 396.761 37.656C395.752 37.7741 394.847 37.8331 394.046 37.8331Z" fill="#FEFEE4"/>
<path fill-rule="evenodd" clip-rule="evenodd" d="M368.722 36.4634C370.74 37.5852 372.965 38.146 375.397 38.146C377.8 38.146 380.01 37.5704 382.028 36.4192C384.074 35.2679 385.691 33.7034 386.878 31.7256C388.064 29.7478 388.658 27.5929 388.658 25.2609C388.658 22.8403 388.064 20.6558 386.878 18.7076C385.691 16.7593 384.074 15.239 382.028 14.1468C380.01 13.0251 377.8 12.4642 375.397 12.4642C372.994 12.4642 370.769 13.0399 368.722 14.1911C366.705 15.3424 365.103 16.8921 363.917 18.8404C362.73 20.7887 362.137 22.9288 362.137 25.2609C362.137 27.6814 362.73 29.8806 363.917 31.8584C365.103 33.8067 366.705 35.3417 368.722 36.4634ZM368.268 25.0195C371.8 24.0542 374.356 21.511 375.326 17.9967C375.4 17.7271 375.48 17.5807 375.563 17.5807C375.646 17.5807 375.726 17.7271 375.8 17.9967C376.771 21.511 379.326 24.0542 382.858 25.0195C383.129 25.0936 383.276 25.173 383.276 25.2557C383.276 25.3384 383.129 25.4179 382.858 25.4919C379.326 26.4572 376.771 29.0004 375.8 32.5148C375.726 32.7843 375.646 32.9307 375.563 32.9307C375.48 32.9307 375.4 32.7843 375.326 32.5148C374.356 29.0004 371.8 26.4572 368.268 25.4919C367.997 25.4179 367.85 25.3384 367.85 25.2557C367.85 25.173 367.997 25.0936 368.268 25.0195Z" fill="#FEFEE4"/>
<path d="M346.404 37.8331C345.603 37.8331 344.951 37.6412 344.446 37.2575C343.942 36.8442 343.69 36.3424 343.69 35.752C343.69 35.2207 343.823 34.8074 344.09 34.5122C344.357 34.217 344.788 33.9071 345.381 33.5823C345.5 33.5233 345.796 33.3462 346.271 33.051C346.746 32.7263 347.176 32.2983 347.561 31.7669C348.095 31.0584 348.451 30.2614 348.629 29.3758C348.837 28.4903 348.941 27.3095 348.941 25.8335C348.941 24.7413 348.822 23.8853 348.585 23.2653C348.347 22.6454 348.066 22.1879 347.739 21.8927C347.413 21.5975 346.968 21.3171 346.404 21.0514C345.959 20.8152 345.603 20.6086 345.336 20.4315C345.099 20.2544 344.877 20.0035 344.669 19.6788C344.491 19.354 344.402 19.0588 344.402 18.7932C344.402 18.1437 344.758 17.5534 345.47 17.022C345.767 16.7859 346.523 16.3726 347.739 15.7822C348.837 15.2804 349.771 14.8081 350.543 14.3653C352.382 13.2731 353.702 12.727 354.503 12.727C355.007 12.727 355.497 12.9336 355.972 13.3469C356.476 13.8192 356.728 14.5276 356.728 15.4723C356.728 16.2102 356.58 17.1696 356.283 18.3504C355.957 19.6197 355.734 20.6381 355.616 21.4056C355.497 22.1436 355.438 23.2506 355.438 24.7266C355.438 26.7929 355.527 28.2984 355.705 29.243C355.883 30.1876 356.253 31.0289 356.817 31.7669C357.025 32.0326 357.47 32.4754 358.152 33.0953C358.686 33.5676 359.072 33.9661 359.309 34.2908C359.546 34.6155 359.665 34.9993 359.665 35.4421C359.665 36.18 359.413 36.7704 358.908 37.2132C358.404 37.6265 357.796 37.8331 357.084 37.8331C356.669 37.8331 356.298 37.8184 355.972 37.7888C355.645 37.7593 355.349 37.7298 355.082 37.7003C354.103 37.5527 353.138 37.4789 352.189 37.4789C351.625 37.4789 350.75 37.5379 349.564 37.656C348.318 37.7741 347.265 37.8331 346.404 37.8331ZM352.234 9.58315C350.928 9.58315 349.801 9.1256 348.852 8.2105C347.932 7.26589 347.472 6.14415 347.472 4.8453C347.472 3.54645 347.932 2.43948 348.852 1.52438C349.801 0.609283 350.928 0.151733 352.234 0.151733C353.569 0.151733 354.696 0.609283 355.616 1.52438C356.565 2.43948 357.039 3.54645 357.039 4.8453C357.039 6.14415 356.565 7.26589 355.616 8.2105C354.696 9.1256 353.569 9.58315 352.234 9.58315Z" fill="#FEFEE4"/>
<path d="M330.744 38.143C328.964 38.143 327.407 37.5969 326.072 36.5047C324.737 35.383 323.728 33.8479 323.046 31.8997C322.364 29.9219 322.097 27.7079 322.245 25.2578C322.304 24.1951 322.334 23.5014 322.334 23.1767C322.334 21.7303 322.216 20.6381 321.978 19.9001C321.771 19.1621 321.504 18.6898 321.177 18.4831C320.851 18.247 320.421 18.0699 319.887 17.9518C319.501 17.8632 319.19 17.7599 318.952 17.6418C318.745 17.5238 318.552 17.3319 318.374 17.0662C318.196 16.7415 318.107 16.4463 318.107 16.1806C318.107 15.5312 318.463 14.9408 319.175 14.4095C319.59 14.0848 320.08 13.7748 320.643 13.4796C322.067 12.594 323.12 11.8708 323.803 11.31C324.277 10.9262 324.856 10.3653 325.538 9.62736C326.131 9.00745 326.621 8.5499 327.007 8.25471C327.422 7.93 327.837 7.76764 328.252 7.76764C328.519 7.76764 328.772 7.82668 329.009 7.94475C329.662 8.29899 329.988 8.93365 329.988 9.84875C329.988 10.3801 329.884 11.1624 329.676 12.1955C329.439 13.5534 329.335 14.1586 329.365 14.011L339.11 13.7453C340.119 13.7158 340.623 14.011 340.623 14.6309C340.623 14.808 340.549 15.0737 340.401 15.4279C340.312 15.605 340.045 16.1364 339.6 17.0219C339.184 17.878 338.591 18.4536 337.82 18.7488C337.078 19.044 336.114 19.1473 334.927 19.0588L328.92 18.616C328.801 20.6823 328.742 21.9074 328.742 22.2911C328.742 24.2689 328.979 25.9958 329.454 27.4718C329.929 28.9477 330.581 30.0842 331.412 30.8813C332.242 31.6783 333.192 32.0768 334.26 32.0768C335.417 32.0768 336.366 31.9292 337.108 31.634C337.849 31.3093 338.591 30.8222 339.333 30.1728C339.867 29.671 340.312 29.4201 340.668 29.4201C340.816 29.4201 340.994 29.4938 341.202 29.6414C341.528 29.8776 341.691 30.1433 341.691 30.4385C341.691 30.7337 341.528 31.1617 341.202 31.7226C340.074 33.8184 338.606 35.4125 336.796 36.5047C334.987 37.5969 332.969 38.143 330.744 38.143Z" fill="#FEFEE4"/>
<path d="M313.126 37.7889C311.613 37.7889 310.189 37.1542 308.854 35.8849C307.519 34.6156 306.526 32.8001 305.873 30.4386C304.894 31.9441 303.693 33.2725 302.269 34.4237C300.874 35.575 299.436 36.4753 297.952 37.1247C296.469 37.7446 295.119 38.0546 293.903 38.0546C292.835 38.0546 292.004 37.8184 291.411 37.3461C290.224 36.4605 289.631 35.1027 289.631 33.2725C289.631 31.6784 290.076 29.9368 290.966 28.0475C291.856 26.1288 293.132 24.2838 294.793 22.5127C296.484 20.712 298.427 19.2065 300.622 17.9962C299.347 17.4649 297.685 17.1992 295.638 17.1992L294.081 17.2435C293.814 17.273 293.413 17.2878 292.879 17.2878C292.019 17.2878 291.396 17.1106 291.011 16.7564C290.625 16.4022 290.491 15.9446 290.61 15.3838C290.699 14.8524 291.1 14.3358 291.812 13.834C292.523 13.3026 293.502 12.8746 294.748 12.5499C295.994 12.1957 297.404 12.0186 298.976 12.0186C300.637 12.0186 302.076 12.2252 303.292 12.6385C304.538 13.0222 305.725 13.6421 306.852 14.4982C309.166 13.406 310.931 12.8599 312.147 12.8599C312.8 12.8599 313.275 13.0075 313.571 13.3026C313.927 13.6569 314.105 14.0259 314.105 14.4096C314.105 14.7343 314.001 15.0738 313.794 15.428C313.586 15.7823 313.275 16.2251 312.859 16.7564C312.711 16.963 312.518 17.2435 312.281 17.5977C312.043 17.9224 311.836 18.2176 311.658 18.4833C311.005 19.5165 310.679 20.5349 310.679 21.5385C310.679 22.188 310.798 22.9112 311.035 23.7082C311.272 24.4757 311.643 25.4498 312.147 26.6306C312.563 27.6343 313.022 28.5198 313.527 29.2873C314.031 30.0549 314.624 30.8962 315.307 31.8113C315.841 32.5788 316.212 33.1544 316.419 33.5381C316.657 33.8924 316.775 34.2318 316.775 34.5565C316.775 35.324 316.39 36.062 315.618 36.7705C314.877 37.4494 314.046 37.7889 313.126 37.7889ZM298.219 30.2615C298.516 30.4681 298.872 30.5714 299.287 30.5714C299.851 30.5714 300.459 30.35 301.112 29.9073C301.764 29.4645 302.417 28.8003 303.07 27.9147C303.989 26.6454 304.449 25.2137 304.449 23.6196C304.449 22.4979 304.212 21.509 303.737 20.653C302.343 21.5976 300.963 22.9112 299.599 24.5938C298.234 26.2764 297.552 27.6933 297.552 28.8446C297.552 29.4645 297.774 29.9368 298.219 30.2615Z" fill="#FEFEE4"/>
<path d="M273.133 37.7003C272.302 37.7003 271.635 37.5232 271.131 37.1689C270.656 36.8147 270.419 36.3424 270.419 35.752C270.419 35.2207 270.523 34.8222 270.73 34.5565C270.938 34.2613 271.279 33.9366 271.754 33.5824C272.199 33.2576 272.569 32.9624 272.866 32.6968C273.192 32.4311 273.519 32.0769 273.845 31.6341C274.349 30.9551 274.705 29.8924 274.913 28.446C275.121 26.9995 275.225 25.2284 275.225 23.1325V17.8633C275.225 15.7674 275.076 14.1291 274.78 12.9484C274.483 11.7676 274.127 10.9263 273.712 10.4245C273.326 9.89311 272.822 9.40604 272.199 8.96325C271.872 8.75661 271.605 8.5795 271.398 8.4319C271.22 8.25478 271.057 8.03339 270.908 7.76772C270.73 7.443 270.641 7.14781 270.641 6.88214C270.641 6.23271 270.997 5.64233 271.709 5.11098C272.006 4.87482 272.762 4.46155 273.979 3.87117C275.076 3.36934 276.011 2.89703 276.782 2.45424C278.621 1.36203 279.941 0.815918 280.742 0.815918C281.247 0.815918 281.736 1.02255 282.211 1.43583C282.715 1.90813 282.967 2.6166 282.967 3.56122C282.967 4.2992 282.819 5.25857 282.522 6.43935C282.226 7.5906 282.018 8.83041 281.899 10.1588C281.781 11.4871 281.721 13.9815 281.721 17.6419V23.1325C281.721 25.2284 281.825 26.9995 282.033 28.446C282.24 29.8924 282.596 30.9551 283.101 31.6341C283.427 32.0769 283.739 32.4311 284.035 32.6968C284.362 32.9624 284.747 33.2576 285.192 33.5824C285.667 33.9366 286.008 34.2613 286.216 34.5565C286.423 34.8222 286.527 35.2207 286.527 35.752C286.527 36.3424 286.275 36.8147 285.771 37.1689C285.296 37.5232 284.643 37.7003 283.813 37.7003C283.219 37.7003 282.359 37.6413 281.232 37.5232C280.045 37.4051 279.126 37.3461 278.473 37.3461C277.88 37.3461 277.079 37.4051 276.07 37.5232C274.943 37.6413 273.964 37.7003 273.133 37.7003Z" fill="#FEFEE4"/>
<path d="M254.143 37.7003C253.312 37.7003 252.645 37.5232 252.14 37.1689C251.666 36.8147 251.429 36.3424 251.429 35.752C251.429 35.2207 251.532 34.8222 251.74 34.5565C251.948 34.2613 252.289 33.9366 252.763 33.5824C253.208 33.2576 253.579 32.9624 253.876 32.6968C254.202 32.4311 254.529 32.0769 254.855 31.6341C255.359 30.9551 255.715 29.8924 255.923 28.446C256.131 26.9995 256.234 25.2284 256.234 23.1325V17.8633C256.234 15.7674 256.086 14.1291 255.789 12.9484C255.493 11.7676 255.137 10.9263 254.721 10.4245C254.336 9.89311 253.831 9.40604 253.208 8.96325C252.882 8.75661 252.615 8.5795 252.407 8.4319C252.229 8.25478 252.066 8.03339 251.918 7.76772C251.74 7.443 251.651 7.14781 251.651 6.88214C251.651 6.23271 252.007 5.64233 252.719 5.11098C253.016 4.87482 253.772 4.46155 254.988 3.87117C256.086 3.36934 257.021 2.89703 257.792 2.45424C259.631 1.36203 260.951 0.815918 261.752 0.815918C262.256 0.815918 262.746 1.02255 263.221 1.43583C263.725 1.90813 263.977 2.6166 263.977 3.56122C263.977 4.2992 263.829 5.25857 263.532 6.43935C263.235 7.5906 263.028 8.83041 262.909 10.1588C262.79 11.4871 262.731 13.9815 262.731 17.6419V23.1325C262.731 25.2284 262.835 26.9995 263.043 28.446C263.25 29.8924 263.606 30.9551 264.111 31.6341C264.437 32.0769 264.748 32.4311 265.045 32.6968C265.371 32.9624 265.757 33.2576 266.202 33.5824C266.677 33.9366 267.018 34.2613 267.225 34.5565C267.433 34.8222 267.537 35.2207 267.537 35.752C267.537 36.3424 267.285 36.8147 266.78 37.1689C266.306 37.5232 265.653 37.7003 264.823 37.7003C264.229 37.7003 263.369 37.6413 262.242 37.5232C261.055 37.4051 260.135 37.3461 259.483 37.3461C258.889 37.3461 258.088 37.4051 257.08 37.5232C255.953 37.6413 254.974 37.7003 254.143 37.7003Z" fill="#FEFEE4"/>
<path d="M238.032 38.1431C235.659 38.1431 233.478 37.5823 231.491 36.4605C229.533 35.3388 227.975 33.8038 226.818 31.8555C225.691 29.8777 225.128 27.6785 225.128 25.258C225.128 22.9259 225.706 20.7858 226.863 18.8375C228.02 16.8597 229.577 15.2952 231.535 14.1439C233.523 12.9927 235.689 12.4171 238.032 12.4171C241.088 12.4171 243.461 13.1846 245.152 14.7196C246.843 16.2546 247.688 18.5718 247.688 21.6714C247.688 22.5569 247.584 23.2064 247.377 23.6196C247.169 24.0034 246.828 24.2691 246.353 24.4167C245.879 24.5642 245.122 24.6676 244.084 24.7266L232.648 25.5236C232.915 26.3502 233.197 27.0144 233.493 27.5162C234.324 29.0807 235.451 30.232 236.875 30.9699C238.329 31.6784 239.871 32.0326 241.503 32.0326C242.69 32.0326 243.817 31.8703 244.885 31.5456C245.953 31.1913 246.828 30.7338 247.51 30.1729C248.044 29.6711 248.489 29.4202 248.845 29.4202C248.994 29.4202 249.172 29.494 249.379 29.6416C249.706 29.8777 249.869 30.1434 249.869 30.4386C249.869 30.7338 249.706 31.1618 249.379 31.7227C248.222 33.8186 246.65 35.4126 244.662 36.5048C242.675 37.597 240.465 38.1431 238.032 38.1431ZM240.747 20.6087C240.747 19.1622 240.361 17.9814 239.59 17.0663C238.848 16.1512 237.913 15.6937 236.786 15.6937C235.985 15.6937 235.184 15.9446 234.383 16.4464C233.612 16.9187 233.019 17.642 232.603 18.6161C232.188 19.5902 231.995 20.6972 232.025 21.937L240.747 20.6087Z" fill="#FEFEE4"/>
<path d="M212.632 38.143C210.852 38.143 209.295 37.5969 207.96 36.5047C206.625 35.383 205.616 33.8479 204.934 31.8997C204.252 29.9219 203.985 27.7079 204.133 25.2578C204.192 24.1951 204.222 23.5014 204.222 23.1767C204.222 21.7303 204.103 20.6381 203.866 19.9001C203.658 19.1621 203.391 18.6898 203.065 18.4831C202.739 18.247 202.309 18.0699 201.775 17.9518C201.389 17.8632 201.077 17.7599 200.84 17.6418C200.633 17.5238 200.44 17.3319 200.262 17.0662C200.084 16.7415 199.995 16.4463 199.995 16.1806C199.995 15.5312 200.351 14.9408 201.063 14.4095C201.478 14.0848 201.967 13.7748 202.531 13.4796C203.955 12.594 205.008 11.8708 205.69 11.31C206.165 10.9262 206.744 10.3653 207.426 9.62736C208.019 9.00745 208.509 8.5499 208.894 8.25471C209.31 7.93 209.725 7.76764 210.14 7.76764C210.407 7.76764 210.66 7.82668 210.897 7.94475C211.549 8.29899 211.876 8.93365 211.876 9.84875C211.876 10.3801 211.772 11.1624 211.564 12.1955C211.327 13.5534 211.223 14.1586 211.253 14.011L220.998 13.7453C222.007 13.7158 222.511 14.011 222.511 14.6309C222.511 14.808 222.437 15.0737 222.288 15.4279C222.199 15.605 221.932 16.1364 221.487 17.0219C221.072 17.878 220.479 18.4536 219.708 18.7488C218.966 19.044 218.002 19.1473 216.815 19.0588L210.808 18.616C210.689 20.6823 210.63 21.9074 210.63 22.2911C210.63 24.2689 210.867 25.9958 211.342 27.4718C211.816 28.9477 212.469 30.0842 213.3 30.8813C214.13 31.6783 215.08 32.0768 216.148 32.0768C217.305 32.0768 218.254 31.9292 218.996 31.634C219.737 31.3093 220.479 30.8222 221.22 30.1728C221.754 29.671 222.199 29.4201 222.555 29.4201C222.704 29.4201 222.882 29.4938 223.089 29.6414C223.416 29.8776 223.579 30.1433 223.579 30.4385C223.579 30.7337 223.416 31.1617 223.089 31.7226C221.962 33.8184 220.494 35.4125 218.684 36.5047C216.874 37.5969 214.857 38.143 212.632 38.143Z" fill="#FEFEE4"/>
<path d="M186.121 38.143C184.282 38.143 182.65 38.0692 181.226 37.9216C179.832 37.774 178.408 37.5084 176.955 37.1246C176.421 36.977 176.05 36.7852 175.842 36.549C175.634 36.2833 175.545 35.9143 175.575 35.442C175.694 34.4384 175.723 33.2871 175.664 31.9883C175.664 31.7521 175.634 31.5012 175.575 31.2355C175.545 30.9403 175.531 30.7189 175.531 30.5713C175.442 30.1285 175.397 29.73 175.397 29.3758C175.397 28.7264 175.664 28.2836 176.198 28.0474C176.317 27.9884 176.48 27.9589 176.688 27.9589C177.073 27.9589 177.444 28.136 177.8 28.4902C178.186 28.8445 178.616 29.361 179.09 30.04L179.624 30.7927C180.307 31.7078 181.36 32.5196 182.784 33.2281C184.237 33.9365 185.691 34.2908 187.145 34.2908C189.785 34.2908 191.105 33.6561 191.105 32.3868C191.105 31.8259 190.63 31.3388 189.681 30.9256C188.732 30.4828 186.967 29.8629 184.386 29.0658C181.39 28.1508 179.135 26.9847 177.622 25.5678C176.139 24.1509 175.397 22.3502 175.397 20.1658C175.397 18.3651 175.976 16.8891 177.133 15.7379C178.289 14.5866 179.713 13.7601 181.404 13.2583C183.125 12.7269 184.875 12.4612 186.655 12.4612C188.02 12.4612 189.577 12.6236 191.328 12.9483C192.425 13.1549 193.285 13.2583 193.908 13.2583C194.887 13.2583 195.525 13.3025 195.822 13.3911C196.148 13.4501 196.311 13.7011 196.311 14.1438C196.311 14.321 196.282 14.7637 196.222 15.4722C196.193 16.1807 196.193 17.081 196.222 18.1732C196.222 18.4094 196.237 18.6751 196.267 18.9703C196.326 19.2359 196.356 19.4426 196.356 19.5902C196.445 20.0625 196.489 20.4905 196.489 20.8742C196.489 21.6122 196.222 22.0993 195.688 22.3355C195.57 22.3945 195.407 22.424 195.199 22.424C194.754 22.424 194.324 22.2026 193.908 21.7598C193.523 21.317 193.167 20.8447 192.841 20.3429C192.544 19.8411 192.351 19.5164 192.262 19.3688C191.639 18.3651 190.734 17.5681 189.548 16.9777C188.361 16.3578 187.145 16.0478 185.899 16.0478C183.525 16.0478 182.339 16.7858 182.339 18.2618C182.339 18.9407 182.754 19.5459 183.585 20.0772C184.445 20.5791 185.943 21.1399 188.079 21.7598C191.431 22.7635 193.923 23.9443 195.555 25.3021C197.187 26.6305 198.002 28.4017 198.002 30.6156C198.002 32.1801 197.483 33.538 196.445 34.6893C195.407 35.811 193.983 36.6671 192.173 37.2575C190.393 37.8478 188.376 38.143 186.121 38.143Z" fill="#FEFEE4"/>
<path d="M142.83 37.8331C142.029 37.8331 141.376 37.6412 140.872 37.2575C140.367 36.8442 140.115 36.3424 140.115 35.752C140.115 35.1616 140.204 34.7336 140.382 34.4679C140.59 34.1727 140.931 33.8332 141.406 33.4495C142.147 32.8296 142.711 32.2687 143.097 31.7669C144.016 30.5566 144.476 27.6932 144.476 23.1768C144.476 22.1731 144.343 21.3909 144.076 20.83C143.838 20.2691 143.527 19.8854 143.141 19.6787C142.785 19.4426 142.31 19.2212 141.717 19.0146C141.213 18.8374 140.812 18.6603 140.516 18.4832C140.219 18.3061 139.967 18.0552 139.759 17.7305C139.581 17.4057 139.492 17.1106 139.492 16.8449C139.492 16.1955 139.848 15.6051 140.56 15.0737C141.035 14.7195 141.673 14.3653 142.474 14.011C142.652 13.9225 142.933 13.7749 143.319 13.5682C143.734 13.3616 144.105 13.155 144.432 12.9483C144.995 12.5941 145.529 12.2251 146.034 11.8414C146.538 11.4281 147.072 10.9705 147.635 10.4687C148.258 9.93737 148.881 9.67169 149.504 9.67169C150.157 9.67169 150.691 9.95212 151.106 10.513C151.284 10.7787 151.373 11.1329 151.373 11.5757C151.373 11.9594 151.329 12.4908 151.24 13.1697C151.21 13.4059 151.151 13.9815 151.062 14.8966C151.003 15.8117 150.973 16.8744 150.973 18.0847C152.011 16.1659 153.376 14.7195 155.067 13.7454C156.758 12.7417 158.716 12.2399 160.941 12.2399C163.403 12.2399 165.346 12.9483 166.77 14.3653C168.194 15.7527 168.906 17.7747 168.906 20.4315C168.906 21.258 168.846 22.0255 168.728 22.734C168.401 25.0955 168.238 26.8372 168.238 27.9589C168.238 29.0806 168.372 29.981 168.639 30.6599C168.935 31.3389 169.41 32.003 170.063 32.6525C170.745 33.3314 171.175 33.8775 171.353 34.2908C171.561 34.7041 171.635 35.2354 171.576 35.8848C171.516 36.4752 171.249 36.9475 170.775 37.3018C170.3 37.656 169.662 37.8331 168.861 37.8331C168.268 37.8331 167.378 37.7741 166.191 37.656C164.945 37.5379 163.981 37.4789 163.299 37.4789C162.706 37.4789 162.023 37.5379 161.252 37.656C160.54 37.7741 159.887 37.8331 159.294 37.8331C157.781 37.8331 157.025 37.1542 157.025 35.7963C157.025 35.4125 157.114 35.0583 157.292 34.7336C157.499 34.4089 157.811 33.9956 158.226 33.4938C158.938 32.6672 159.561 31.8112 160.095 30.9256C160.659 30.04 161.193 28.8445 161.697 27.339C162.053 26.2763 162.231 25.2579 162.231 24.2837C162.231 23.0735 161.994 21.9665 161.519 20.9628C161.044 19.9297 160.392 19.1179 159.561 18.5275C158.76 17.9371 157.87 17.6419 156.891 17.6419C156.179 17.6419 155.512 17.7895 154.889 18.0847C153.524 18.6456 152.486 19.6049 151.774 20.9628C151.092 22.3207 150.75 23.8557 150.75 25.5678C150.75 27.7523 151.284 29.8186 152.352 31.7669C152.946 32.8001 153.361 33.5971 153.598 34.158C153.865 34.7188 153.999 35.2354 153.999 35.7077C153.999 36.3276 153.776 36.8442 153.331 37.2575C152.886 37.6412 152.352 37.8331 151.729 37.8331C151.462 37.8331 151.166 37.8183 150.839 37.7888C150.513 37.7593 150.261 37.7298 150.083 37.7003C149.401 37.5527 148.614 37.4789 147.724 37.4789C147.161 37.4789 146.434 37.5379 145.544 37.656C144.535 37.7741 143.631 37.8331 142.83 37.8331Z" fill="#FEFEE4"/>
<path d="M107.37 37.8331C106.569 37.8331 105.916 37.6412 105.412 37.2575C104.908 36.8442 104.656 36.3424 104.656 35.752C104.656 35.1616 104.745 34.7336 104.923 34.4679C105.13 34.1727 105.471 33.8332 105.946 33.4495C106.688 32.8296 107.251 32.2687 107.637 31.7669C108.557 30.5566 109.016 27.6932 109.016 23.1768C109.016 22.1731 108.883 21.3909 108.616 20.83C108.379 20.2691 108.067 19.8854 107.681 19.6787C107.325 19.4426 106.851 19.2212 106.257 19.0146C105.753 18.8374 105.353 18.6603 105.056 18.4832C104.759 18.3061 104.507 18.0552 104.3 17.7305C104.122 17.4057 104.033 17.1106 104.033 16.8449C104.033 16.1955 104.389 15.6051 105.1 15.0737C105.575 14.7195 106.213 14.3653 107.014 14.011C107.192 13.9225 107.474 13.7749 107.859 13.5682C108.275 13.3616 108.646 13.155 108.972 12.9483C109.536 12.5941 110.069 12.2251 110.574 11.8414C111.078 11.4281 111.612 10.9705 112.176 10.4687C112.799 9.93737 113.422 9.67169 114.045 9.67169C114.697 9.67169 115.231 9.95212 115.647 10.513C115.825 10.7787 115.914 11.1329 115.914 11.5757C115.914 11.9594 115.869 12.4908 115.78 13.1697C115.75 13.4059 115.691 13.9815 115.602 14.8966C115.543 15.8117 115.513 16.8744 115.513 18.0847C116.551 16.1659 117.916 14.7195 119.607 13.7454C121.298 12.7417 123.256 12.2399 125.481 12.2399C127.943 12.2399 129.886 12.9483 131.31 14.3653C132.734 15.7527 133.446 17.7747 133.446 20.4315C133.446 21.258 133.387 22.0255 133.268 22.734C132.942 25.0955 132.779 26.8372 132.779 27.9589C132.779 29.0806 132.912 29.981 133.179 30.6599C133.476 31.3389 133.95 32.003 134.603 32.6525C135.285 33.3314 135.715 33.8775 135.893 34.2908C136.101 34.7041 136.175 35.2354 136.116 35.8848C136.057 36.4752 135.79 36.9475 135.315 37.3018C134.84 37.656 134.202 37.8331 133.402 37.8331C132.808 37.8331 131.918 37.7741 130.732 37.656C129.486 37.5379 128.522 37.4789 127.839 37.4789C127.246 37.4789 126.564 37.5379 125.792 37.656C125.08 37.7741 124.428 37.8331 123.834 37.8331C122.321 37.8331 121.565 37.1542 121.565 35.7963C121.565 35.4125 121.654 35.0583 121.832 34.7336C122.04 34.4089 122.351 33.9956 122.766 33.4938C123.478 32.6672 124.101 31.8112 124.635 30.9256C125.199 30.04 125.733 28.8445 126.237 27.339C126.593 26.2763 126.771 25.2579 126.771 24.2837C126.771 23.0735 126.534 21.9665 126.059 20.9628C125.585 19.9297 124.932 19.1179 124.101 18.5275C123.3 17.9371 122.41 17.6419 121.431 17.6419C120.719 17.6419 120.052 17.7895 119.429 18.0847C118.064 18.6456 117.026 19.6049 116.314 20.9628C115.632 22.3207 115.291 23.8557 115.291 25.5678C115.291 27.7523 115.825 29.8186 116.893 31.7669C117.486 32.8001 117.901 33.5971 118.139 34.158C118.406 34.7188 118.539 35.2354 118.539 35.7077C118.539 36.3276 118.317 36.8442 117.872 37.2575C117.427 37.6412 116.893 37.8331 116.27 37.8331C116.003 37.8331 115.706 37.8183 115.38 37.7888C115.053 37.7593 114.801 37.7298 114.623 37.7003C113.941 37.5527 113.155 37.4789 112.265 37.4789C111.701 37.4789 110.974 37.5379 110.084 37.656C109.076 37.7741 108.171 37.8331 107.37 37.8331Z" fill="#FEFEE4"/>
<path fill-rule="evenodd" clip-rule="evenodd" d="M81.9124 36.4634C83.9297 37.5852 86.1546 38.146 88.5872 38.146C90.9901 38.146 93.2002 37.5704 95.2175 36.4192C97.2644 35.2679 98.8812 33.7034 100.068 31.7256C101.254 29.7478 101.848 27.5929 101.848 25.2609C101.848 22.8403 101.254 20.6558 100.068 18.7076C98.8812 16.7593 97.2644 15.239 95.2175 14.1468C93.2002 13.0251 90.9901 12.4642 88.5872 12.4642C86.1843 12.4642 83.9594 13.0399 81.9124 14.1911C79.8952 15.3424 78.2932 16.8921 77.1066 18.8404C75.92 20.7887 75.3267 22.9288 75.3267 25.2609C75.3267 27.6814 75.92 29.8806 77.1066 31.8584C78.2932 33.8067 79.8952 35.3417 81.9124 36.4634ZM80.3773 25.0019C84.4323 23.9651 87.3667 21.2335 88.4805 17.4589C88.566 17.1693 88.6576 17.0121 88.7531 17.0121C88.8485 17.0121 88.9401 17.1693 89.0256 17.4589C90.1394 21.2335 93.0738 23.9651 97.1288 25.0019C97.4399 25.0814 97.6087 25.1668 97.6087 25.2556C97.6087 25.3444 97.4399 25.4298 97.1288 25.5093C93.0738 26.5461 90.1394 29.2777 89.0256 33.0524C88.9402 33.3419 88.8485 33.4991 88.7531 33.4991C88.6576 33.4991 88.566 33.3419 88.4805 33.0524C87.3667 29.2777 84.4323 26.5461 80.3773 25.5093C80.0662 25.4298 79.8974 25.3444 79.8974 25.2556C79.8974 25.1668 80.0662 25.0814 80.3773 25.0019Z" fill="#FEFEE4"/>
<path d="M57.0053 38.0988C53.9201 38.0988 51.087 37.3313 48.5061 35.7963C45.9548 34.2613 43.9376 32.1802 42.4543 29.553C40.971 26.9258 40.2294 24.0624 40.2294 20.9629C40.2294 17.8929 40.9858 15.0442 42.4988 12.417C44.0414 9.7898 46.1032 7.70869 48.6841 6.17369C51.265 4.60917 54.0387 3.8269 57.0053 3.8269C58.2513 3.8269 59.2896 3.9007 60.1202 4.0483C60.9508 4.1959 61.8556 4.41729 62.8346 4.71248C63.9026 5.06672 64.8222 5.24383 65.5935 5.24383C65.7418 5.24383 66.0533 5.21431 66.528 5.15527C67.5069 5.00768 68.2337 4.93388 68.7084 4.93388C69.4204 4.93388 69.9099 5.08148 70.1768 5.37667C70.4735 5.67186 70.6218 6.18845 70.6218 6.92643C70.6218 7.93009 70.4438 9.43557 70.0879 11.4429C69.7319 13.4502 69.3759 14.69 69.0199 15.1623C68.5452 15.7822 68.0113 16.0922 67.4179 16.0922C66.5873 16.0922 65.7567 15.4428 64.926 14.1439C63.7097 12.1956 62.3748 10.7344 60.9212 9.76028C59.4675 8.75663 57.7618 8.2548 55.8038 8.2548C54.0832 8.2548 52.5406 8.69759 51.176 9.58317C49.841 10.4687 48.7879 11.6643 48.0166 13.1698C47.275 14.6752 46.9041 16.3283 46.9041 18.129C46.9041 20.5201 47.453 22.7193 48.5506 24.7266C49.6779 26.7044 51.2057 28.2836 53.1339 29.4644C55.0622 30.6157 57.213 31.1913 59.5862 31.1913C61.5738 31.1913 63.3537 30.7337 64.926 29.8187C66.528 28.9036 67.8629 27.6785 68.9309 26.1435C69.4055 25.4941 69.7912 25.0218 70.0879 24.7266C70.3845 24.4314 70.696 24.2838 71.0223 24.2838C71.23 24.2838 71.4376 24.3281 71.6453 24.4166C71.9716 24.5937 72.1348 24.9627 72.1348 25.5236C72.1348 26.0254 72.0013 26.6158 71.7343 27.2948C70.429 30.5124 68.5749 33.1248 66.172 35.1321C63.7691 37.1099 60.7135 38.0988 57.0053 38.0988Z" fill="#FEFEE4"/>
<path d="M18.8229 37.9217C13.7797 37.9217 10.0122 36.7999 7.52024 34.5565C5.05799 32.2835 3.82687 29.1692 3.82687 25.2136C3.82687 24.2985 3.85653 23.6048 3.91587 23.1325C4.24219 20.0625 4.40535 17.7009 4.40535 16.0479C4.40535 14.69 4.28669 13.5682 4.04936 12.6827C3.8417 11.7676 3.48571 10.9853 2.9814 10.3359C2.56608 9.80452 1.9431 9.12558 1.11246 8.29904C0.697143 7.88577 0.400486 7.57582 0.222492 7.36918C0.0741641 7.13303 0 6.80831 0 6.39504C0 5.74562 0.237325 5.22903 0.711975 4.84528C1.21629 4.46153 1.88377 4.26965 2.71441 4.26965C3.10006 4.26965 3.47088 4.28441 3.82687 4.31393C4.18286 4.34345 4.49435 4.37297 4.76134 4.40249C5.7403 4.55009 6.6896 4.62389 7.60924 4.62389C8.26188 4.62389 9.09252 4.56485 10.1012 4.44677C11.1098 4.32869 11.9108 4.26965 12.5041 4.26965C13.3347 4.26965 13.9874 4.46153 14.462 4.84528C14.9663 5.22903 15.2185 5.74562 15.2185 6.39504C15.2185 6.80831 15.1295 7.13303 14.9515 7.36918C14.8032 7.57582 14.5213 7.88577 14.106 8.29904C13.2754 9.12558 12.6524 9.80452 12.2371 10.3359C11.6734 11.0739 11.3026 12.2399 11.1246 13.8339C10.9466 15.3984 10.8576 18.0552 10.8576 21.8041C10.8576 25.8187 11.4658 28.7412 12.6821 30.5714C13.928 32.4016 15.975 33.3166 18.8229 33.3166C21.6411 33.3166 23.6584 32.4016 24.8746 30.5714C26.0909 28.7116 26.6991 25.7892 26.6991 21.8041C26.6991 18.0256 26.6101 15.3542 26.4321 13.7896C26.2541 12.2251 25.8833 11.0739 25.3196 10.3359C24.9043 9.80452 24.2813 9.12558 23.4507 8.29904C23.0354 7.88577 22.7387 7.57582 22.5607 7.36918C22.4124 7.13303 22.3382 6.80831 22.3382 6.39504C22.3382 5.74562 22.5756 5.22903 23.0502 4.84528C23.5545 4.46153 24.222 4.26965 25.0526 4.26965C25.4383 4.26965 25.8091 4.28441 26.1651 4.31393C26.5211 4.34345 26.8326 4.37297 27.0996 4.40249C28.0785 4.55009 29.0278 4.62389 29.9475 4.62389C30.6001 4.62389 31.4308 4.56485 32.4394 4.44677C33.448 4.32869 34.249 4.26965 34.8423 4.26965C35.6729 4.26965 36.3256 4.46153 36.8002 4.84528C37.3046 5.22903 37.5567 5.74562 37.5567 6.39504C37.5567 6.80831 37.4677 7.13303 37.2897 7.36918C37.1414 7.57582 36.8596 7.88577 36.4442 8.29904C35.6136 9.12558 34.9906 9.80452 34.5753 10.3359C34.071 11.0148 33.7002 11.8118 33.4629 12.7269C33.2552 13.6125 33.1514 14.7195 33.1514 16.0479C33.1514 17.7009 33.3145 20.0625 33.6408 23.1325C33.7298 23.841 33.7743 24.5494 33.7743 25.2579C33.7743 29.1839 32.5284 32.2835 30.0365 34.5565C27.5742 36.7999 23.8363 37.9217 18.8229 37.9217Z" fill="#FEFEE4"/>
</svg>
