<svg width="859" height="592" viewBox="0 0 859 592" fill="none" xmlns="http://www.w3.org/2000/svg">
<path d="M0.417981 2.88839C0.149316 3.4921 0 4.16064 0 4.86406V587.136C0 589.822 2.17772 592 4.86409 592H854.136C856.822 592 859 589.822 859 587.136V4.8641C859 4.16067 858.851 3.49212 858.582 2.88841C857.753 7.72694 855.695 12.4778 852.461 16.9863C848.144 23.0057 841.817 28.4751 833.841 33.0821C825.864 37.6892 816.394 41.3437 805.973 43.837C795.551 46.3304 784.381 47.6137 773.1 47.6137C761.819 47.6137 750.649 46.3304 740.227 43.837C729.806 41.3437 720.336 37.6892 712.36 33.0821C704.383 28.4751 698.056 23.0057 693.739 16.9862C689.864 11.5835 687.677 5.83266 687.27 0H687.13C686.723 5.83266 684.536 11.5835 680.661 16.9863C676.344 23.0057 670.017 28.4751 662.041 33.0821C654.064 37.6892 644.594 41.3437 634.173 43.837C623.751 46.3304 612.581 47.6137 601.3 47.6137C590.019 47.6137 578.849 46.3304 568.427 43.837C558.006 41.3437 548.536 37.6892 540.56 33.0821C532.583 28.4751 526.256 23.0057 521.939 16.9862C518.064 11.5835 515.877 5.83266 515.47 0L515.33 0C514.923 5.83266 512.736 11.5835 508.861 16.9863C504.544 23.0057 498.217 28.4751 490.241 33.0821C482.264 37.6892 472.794 41.3437 462.373 43.837C451.951 46.3304 440.781 47.6137 429.5 47.6137C418.22 47.6137 407.049 46.3304 396.628 43.837C386.206 41.3437 376.736 37.6892 368.76 33.0821C360.783 28.4751 354.456 23.0057 350.139 16.9862C346.264 11.5835 344.077 5.83266 343.67 0L343.53 0C343.123 5.83266 340.936 11.5835 337.061 16.9863C332.744 23.0057 326.417 28.4751 318.44 33.0821C310.464 37.6892 300.994 41.3437 290.572 43.837C280.151 46.3304 268.981 47.6137 257.7 47.6137C246.419 47.6137 235.249 46.3304 224.827 43.837C214.406 41.3437 204.936 37.6892 196.96 33.0821C188.983 28.4751 182.656 23.0057 178.339 16.9862C174.464 11.5835 172.277 5.83266 171.87 0L171.73 0C171.323 5.83271 169.136 11.5836 165.261 16.9863C160.944 23.0057 154.617 28.4751 146.64 33.0822C138.664 37.6892 129.194 41.3438 118.773 43.8371C108.351 46.3304 97.1805 47.6137 85.9 47.6137C74.6194 47.6137 63.4494 46.3304 53.0275 43.8371C42.6056 41.3438 33.1361 37.6892 25.1595 33.0822C17.183 28.4751 10.8556 23.0057 6.53875 16.9863C3.30546 12.4778 1.24744 7.72694 0.417981 2.88839Z" fill="url(#paint0_linear_698_11)"/>
<defs>
<linearGradient id="paint0_linear_698_11" x1="429.5" y1="0" x2="429.5" y2="592" gradientUnits="userSpaceOnUse">
<stop offset="0.4" stop-color="#90BAF9"/>
<stop offset="1" stop-color="#F2F1E6"/>
</linearGradient>
</defs>
</svg>
